<svg xmlns="http://www.w3.org/2000/svg" xmlns:xlink="http://www.w3.org/1999/xlink" version="1.1" class="marks" width="631" height="366" viewBox="0 0 631 366"><rect width="631" height="366" fill="white"/><g fill="none" stroke-miterlimit="10" transform="translate(64,22)"><g class="mark-group role-frame root" role="graphics-object" aria-roledescription="group mark container"><g transform="translate(0,0)"><path class="background" aria-hidden="true" d="M0.5,0.5h500v300h-500Z" stroke="#ddd"/><g><g class="mark-group role-axis" role="graphics-symbol" aria-roledescription="axis" aria-label="Y-axis for a linear scale with values from 0 to 280,000"><g transform="translate(0.5,0.5)"><path class="background" aria-hidden="true" d="M0,0h0v0h0Z" pointer-events="none"/><g><g class="mark-rule role-axis-grid" pointer-events="none"><line transform="translate(0,300)" x2="500" y2="0" stroke="#ddd" stroke-width="1" opacity="1"/><line transform="translate(0,246)" x2="500" y2="0" stroke="#ddd" stroke-width="1" opacity="1"/><line transform="translate(0,193)" x2="500" y2="0" stroke="#ddd" stroke-width="1" opacity="1"/><line transform="translate(0,139)" x2="500" y2="0" stroke="#ddd" stroke-width="1" opacity="1"/><line transform="translate(0,86)" x2="500" y2="0" stroke="#ddd" stroke-width="1" opacity="1"/><line transform="translate(0,32)" x2="500" y2="0" stroke="#ddd" stroke-width="1" opacity="1"/></g></g><path class="foreground" aria-hidden="true" d="" pointer-events="none" display="none"/></g></g><g class="mark-group role-axis" role="graphics-symbol" aria-roledescription="axis" aria-label="X-axis titled 'M, N, K' for a discrete scale with 20 values: 10, 20, 30, 40, 50, ending with 200"><g transform="translate(0.5,300.5)"><path class="background" aria-hidden="true" d="M0,0h0v0h0Z" pointer-events="none"/><g><g class="mark-rule role-axis-tick" pointer-events="none"><line transform="translate(12,0)" x2="0" y2="5" stroke="#888" stroke-width="1" opacity="1"/><line transform="translate(37,0)" x2="0" y2="5" stroke="#888" stroke-width="1" opacity="1"/><line transform="translate(62,0)" x2="0" y2="5" stroke="#888" stroke-width="1" opacity="1"/><line transform="translate(87,0)" x2="0" y2="5" stroke="#888" stroke-width="1" opacity="1"/><line transform="translate(112,0)" x2="0" y2="5" stroke="#888" stroke-width="1" opacity="1"/><line transform="translate(137,0)" x2="0" y2="5" stroke="#888" stroke-width="1" opacity="1"/><line transform="translate(162,0)" x2="0" y2="5" stroke="#888" stroke-width="1" opacity="1"/><line transform="translate(187,0)" x2="0" y2="5" stroke="#888" stroke-width="1" opacity="1"/><line transform="translate(212,0)" x2="0" y2="5" stroke="#888" stroke-width="1" opacity="1"/><line transform="translate(237,0)" x2="0" y2="5" stroke="#888" stroke-width="1" opacity="1"/><line transform="translate(262,0)" x2="0" y2="5" stroke="#888" stroke-width="1" opacity="1"/><line transform="translate(287,0)" x2="0" y2="5" stroke="#888" stroke-width="1" opacity="1"/><line transform="translate(312,0)" x2="0" y2="5" stroke="#888" stroke-width="1" opacity="1"/><line transform="translate(337,0)" x2="0" y2="5" stroke="#888" stroke-width="1" opacity="1"/><line transform="translate(362,0)" x2="0" y2="5" stroke="#888" stroke-width="1" opacity="1"/><line transform="translate(387,0)" x2="0" y2="5" stroke="#888" stroke-width="1" opacity="1"/><line transform="translate(412,0)" x2="0" y2="5" stroke="#888" stroke-width="1" opacity="1"/><line transform="translate(437,0)" x2="0" y2="5" stroke="#888" stroke-width="1" opacity="1"/><line transform="translate(462,0)" x2="0" y2="5" stroke="#888" stroke-width="1" opacity="1"/><line transform="translate(487,0)" x2="0" y2="5" stroke="#888" stroke-width="1" opacity="1"/></g><g class="mark-text role-axis-label" pointer-events="none"><text text-anchor="end" transform="translate(12,7) rotate(270) translate(0,3)" font-family="sans-serif" font-size="10px" fill="#000" opacity="1">10</text><text text-anchor="end" transform="translate(37,7) rotate(270) translate(0,3)" font-family="sans-serif" font-size="10px" fill="#000" opacity="1">20</text><text text-anchor="end" transform="translate(62,7) rotate(270) translate(0,3)" font-family="sans-serif" font-size="10px" fill="#000" opacity="1">30</text><text text-anchor="end" transform="translate(87,7) rotate(270) translate(0,3)" font-family="sans-serif" font-size="10px" fill="#000" opacity="1">40</text><text text-anchor="end" transform="translate(112,7) rotate(270) translate(0,3)" font-family="sans-serif" font-size="10px" fill="#000" opacity="1">50</text><text text-anchor="end" transform="translate(137,7) rotate(270) translate(0,3)" font-family="sans-serif" font-size="10px" fill="#000" opacity="1">60</text><text text-anchor="end" transform="translate(162,7) rotate(270) translate(0,3)" font-family="sans-serif" font-size="10px" fill="#000" opacity="1">70</text><text text-anchor="end" transform="translate(187,7) rotate(270) translate(0,3)" font-family="sans-serif" font-size="10px" fill="#000" opacity="1">80</text><text text-anchor="end" transform="translate(212,7) rotate(270) translate(0,3)" font-family="sans-serif" font-size="10px" fill="#000" opacity="1">90</text><text text-anchor="end" transform="translate(237,7) rotate(270) translate(0,3)" font-family="sans-serif" font-size="10px" fill="#000" opacity="1">100</text><text text-anchor="end" transform="translate(262,7) rotate(270) translate(0,3)" font-family="sans-serif" font-size="10px" fill="#000" opacity="1">110</text><text text-anchor="end" transform="translate(287,7) rotate(270) translate(0,3)" font-family="sans-serif" font-size="10px" fill="#000" opacity="1">120</text><text text-anchor="end" transform="translate(312,7) rotate(270) translate(0,3)" font-family="sans-serif" font-size="10px" fill="#000" opacity="1">130</text><text text-anchor="end" transform="translate(337,7) rotate(270) translate(0,3)" font-family="sans-serif" font-size="10px" fill="#000" opacity="1">140</text><text text-anchor="end" transform="translate(362,7) rotate(270) translate(0,3)" font-family="sans-serif" font-size="10px" fill="#000" opacity="1">150</text><text text-anchor="end" transform="translate(387,7) rotate(270) translate(0,3)" font-family="sans-serif" font-size="10px" fill="#000" opacity="1">160</text><text text-anchor="end" transform="translate(412,7) rotate(270) translate(0,3)" font-family="sans-serif" font-size="10px" fill="#000" opacity="1">170</text><text text-anchor="end" transform="translate(437,7) rotate(270) translate(0,3)" font-family="sans-serif" font-size="10px" fill="#000" opacity="1">180</text><text text-anchor="end" transform="translate(462,7) rotate(270) translate(0,3)" font-family="sans-serif" font-size="10px" fill="#000" opacity="1">190</text><text text-anchor="end" transform="translate(487,7) rotate(270) translate(0,3)" font-family="sans-serif" font-size="10px" fill="#000" opacity="1">200</text></g><g class="mark-rule role-axis-domain" pointer-events="none"><line transform="translate(0,0)" x2="500" y2="0" stroke="#888" stroke-width="1" opacity="1"/></g><g class="mark-text role-axis-title" pointer-events="none"><text text-anchor="middle" transform="translate(250,36.6845703125)" font-family="sans-serif" font-size="11px" font-weight="bold" fill="#000" opacity="1">M, N, K</text></g></g><path class="foreground" aria-hidden="true" d="" pointer-events="none" display="none"/></g></g><g class="mark-group role-axis" role="graphics-symbol" aria-roledescription="axis" aria-label="Y-axis titled 'MFlops' for a linear scale with values from 0 to 280,000"><g transform="translate(0.5,0.5)"><path class="background" aria-hidden="true" d="M0,0h0v0h0Z" pointer-events="none"/><g><g class="mark-rule role-axis-tick" pointer-events="none"><line transform="translate(0,300)" x2="-5" y2="0" stroke="#888" stroke-width="1" opacity="1"/><line transform="translate(0,246)" x2="-5" y2="0" stroke="#888" stroke-width="1" opacity="1"/><line transform="translate(0,193)" x2="-5" y2="0" stroke="#888" stroke-width="1" opacity="1"/><line transform="translate(0,139)" x2="-5" y2="0" stroke="#888" stroke-width="1" opacity="1"/><line transform="translate(0,86)" x2="-5" y2="0" stroke="#888" stroke-width="1" opacity="1"/><line transform="translate(0,32)" x2="-5" y2="0" stroke="#888" stroke-width="1" opacity="1"/></g><g class="mark-text role-axis-label" pointer-events="none"><text text-anchor="end" transform="translate(-7,303)" font-family="sans-serif" font-size="10px" fill="#000" opacity="1">0</text><text text-anchor="end" transform="translate(-7,249.42857142857142)" font-family="sans-serif" font-size="10px" fill="#000" opacity="1">50,000</text><text text-anchor="end" transform="translate(-7,195.85714285714283)" font-family="sans-serif" font-size="10px" fill="#000" opacity="1">100,000</text><text text-anchor="end" transform="translate(-7,142.28571428571428)" font-family="sans-serif" font-size="10px" fill="#000" opacity="1">150,000</text><text text-anchor="end" transform="translate(-7,88.71428571428571)" font-family="sans-serif" font-size="10px" fill="#000" opacity="1">200,000</text><text text-anchor="end" transform="translate(-7,35.14285714285713)" font-family="sans-serif" font-size="10px" fill="#000" opacity="1">250,000</text></g><g class="mark-rule role-axis-domain" pointer-events="none"><line transform="translate(0,300)" x2="0" y2="-300" stroke="#888" stroke-width="1" opacity="1"/></g><g class="mark-text role-axis-title" pointer-events="none"><text text-anchor="middle" transform="translate(-47.1474609375,150) rotate(-90) translate(0,-2)" font-family="sans-serif" font-size="11px" font-weight="bold" fill="#000" opacity="1">MFlops</text></g></g><path class="foreground" aria-hidden="true" d="" pointer-events="none" display="none"/></g></g><g class="mark-symbol role-mark layer_0_layer_0_layer_0_marks" role="graphics-symbol" aria-roledescription="symbol mark container"><path transform="translate(12.5,291.42857142857144)" d="M2.7386127875258306,0A2.7386127875258306,2.7386127875258306,0,1,1,-2.7386127875258306,0A2.7386127875258306,2.7386127875258306,0,1,1,2.7386127875258306,0" stroke="#4c78a8" stroke-width="2" opacity="0.7"/><path transform="translate(37.5,268.8311678571429)" d="M2.7386127875258306,0A2.7386127875258306,2.7386127875258306,0,1,1,-2.7386127875258306,0A2.7386127875258306,2.7386127875258306,0,1,1,2.7386127875258306,0" stroke="#4c78a8" stroke-width="2" opacity="0.7"/><path transform="translate(37.5,268.8311678571429)" d="M2.7386127875258306,0A2.7386127875258306,2.7386127875258306,0,1,1,-2.7386127875258306,0A2.7386127875258306,2.7386127875258306,0,1,1,2.7386127875258306,0" stroke="#4c78a8" stroke-width="2" opacity="0.7"/><path transform="translate(62.5,267.8571428571429)" d="M2.7386127875258306,0A2.7386127875258306,2.7386127875258306,0,1,1,-2.7386127875258306,0A2.7386127875258306,2.7386127875258306,0,1,1,2.7386127875258306,0" stroke="#4c78a8" stroke-width="2" opacity="0.7"/><path transform="translate(62.5,267.8571428571429)" d="M2.7386127875258306,0A2.7386127875258306,2.7386127875258306,0,1,1,-2.7386127875258306,0A2.7386127875258306,2.7386127875258306,0,1,1,2.7386127875258306,0" stroke="#4c78a8" stroke-width="2" opacity="0.7"/><path transform="translate(87.5,260.2484464285714)" d="M2.7386127875258306,0A2.7386127875258306,2.7386127875258306,0,1,1,-2.7386127875258306,0A2.7386127875258306,2.7386127875258306,0,1,1,2.7386127875258306,0" stroke="#4c78a8" stroke-width="2" opacity="0.7"/><path transform="translate(87.5,260.2484464285714)" d="M2.7386127875258306,0A2.7386127875258306,2.7386127875258306,0,1,1,-2.7386127875258306,0A2.7386127875258306,2.7386127875258306,0,1,1,2.7386127875258306,0" stroke="#4c78a8" stroke-width="2" opacity="0.7"/><path transform="translate(162.5,273.17517857142855)" d="M2.7386127875258306,0A2.7386127875258306,2.7386127875258306,0,1,1,-2.7386127875258306,0A2.7386127875258306,2.7386127875258306,0,1,1,2.7386127875258306,0" stroke="#4c78a8" stroke-width="2" opacity="0.7"/><path transform="translate(187.5,267.4438285714286)" d="M2.7386127875258306,0A2.7386127875258306,2.7386127875258306,0,1,1,-2.7386127875258306,0A2.7386127875258306,2.7386127875258306,0,1,1,2.7386127875258306,0" stroke="#4c78a8" stroke-width="2" opacity="0.7"/><path transform="translate(212.5,257.37672857142854)" d="M2.7386127875258306,0A2.7386127875258306,2.7386127875258306,0,1,1,-2.7386127875258306,0A2.7386127875258306,2.7386127875258306,0,1,1,2.7386127875258306,0" stroke="#4c78a8" stroke-width="2" opacity="0.7"/><path transform="translate(212.5,254.12209285714283)" d="M2.7386127875258306,0A2.7386127875258306,2.7386127875258306,0,1,1,-2.7386127875258306,0A2.7386127875258306,2.7386127875258306,0,1,1,2.7386127875258306,0" stroke="#4c78a8" stroke-width="2" opacity="0.7"/><path transform="translate(237.5,273.34755)" d="M2.7386127875258306,0A2.7386127875258306,2.7386127875258306,0,1,1,-2.7386127875258306,0A2.7386127875258306,2.7386127875258306,0,1,1,2.7386127875258306,0" stroke="#4c78a8" stroke-width="2" opacity="0.7"/><path transform="translate(262.5,253.84882499999998)" d="M2.7386127875258306,0A2.7386127875258306,2.7386127875258306,0,1,1,-2.7386127875258306,0A2.7386127875258306,2.7386127875258306,0,1,1,2.7386127875258306,0" stroke="#4c78a8" stroke-width="2" opacity="0.7"/><path transform="translate(287.5,247.13979642857146)" d="M2.7386127875258306,0A2.7386127875258306,2.7386127875258306,0,1,1,-2.7386127875258306,0A2.7386127875258306,2.7386127875258306,0,1,1,2.7386127875258306,0" stroke="#4c78a8" stroke-width="2" opacity="0.7"/><path transform="translate(337.5,265.7841107142857)" d="M2.7386127875258306,0A2.7386127875258306,2.7386127875258306,0,1,1,-2.7386127875258306,0A2.7386127875258306,2.7386127875258306,0,1,1,2.7386127875258306,0" stroke="#4c78a8" stroke-width="2" opacity="0.7"/><path transform="translate(362.5,264.67818214285717)" d="M2.7386127875258306,0A2.7386127875258306,2.7386127875258306,0,1,1,-2.7386127875258306,0A2.7386127875258306,2.7386127875258306,0,1,1,2.7386127875258306,0" stroke="#4c78a8" stroke-width="2" opacity="0.7"/><path transform="translate(387.5,289.3390714285714)" d="M2.7386127875258306,0A2.7386127875258306,2.7386127875258306,0,1,1,-2.7386127875258306,0A2.7386127875258306,2.7386127875258306,0,1,1,2.7386127875258306,0" stroke="#4c78a8" stroke-width="2" opacity="0.7"/><path transform="translate(387.5,248.82132857142858)" d="M2.7386127875258306,0A2.7386127875258306,2.7386127875258306,0,1,1,-2.7386127875258306,0A2.7386127875258306,2.7386127875258306,0,1,1,2.7386127875258306,0" stroke="#4c78a8" stroke-width="2" opacity="0.7"/><path transform="translate(412.5,242.47072500000002)" d="M2.7386127875258306,0A2.7386127875258306,2.7386127875258306,0,1,1,-2.7386127875258306,0A2.7386127875258306,2.7386127875258306,0,1,1,2.7386127875258306,0" stroke="#4c78a8" stroke-width="2" opacity="0.7"/><path transform="translate(412.5,243.35293928571429)" d="M2.7386127875258306,0A2.7386127875258306,2.7386127875258306,0,1,1,-2.7386127875258306,0A2.7386127875258306,2.7386127875258306,0,1,1,2.7386127875258306,0" stroke="#4c78a8" stroke-width="2" opacity="0.7"/><path transform="translate(437.5,240.48979285714285)" d="M2.7386127875258306,0A2.7386127875258306,2.7386127875258306,0,1,1,-2.7386127875258306,0A2.7386127875258306,2.7386127875258306,0,1,1,2.7386127875258306,0" stroke="#4c78a8" stroke-width="2" opacity="0.7"/><path transform="translate(462.5,240.08211428571428)" d="M2.7386127875258306,0A2.7386127875258306,2.7386127875258306,0,1,1,-2.7386127875258306,0A2.7386127875258306,2.7386127875258306,0,1,1,2.7386127875258306,0" stroke="#4c78a8" stroke-width="2" opacity="0.7"/><path transform="translate(462.5,226.6024607142857)" d="M2.7386127875258306,0A2.7386127875258306,2.7386127875258306,0,1,1,-2.7386127875258306,0A2.7386127875258306,2.7386127875258306,0,1,1,2.7386127875258306,0" stroke="#4c78a8" stroke-width="2" opacity="0.7"/><path transform="translate(487.5,245.74187142857141)" d="M2.7386127875258306,0A2.7386127875258306,2.7386127875258306,0,1,1,-2.7386127875258306,0A2.7386127875258306,2.7386127875258306,0,1,1,2.7386127875258306,0" stroke="#4c78a8" stroke-width="2" opacity="0.7"/></g><g class="mark-rule role-mark layer_0_layer_0_layer_1_layer_0_marks" role="graphics-symbol" aria-roledescription="rule mark container"><line transform="translate(12.5,289.2857142857143)" x2="0" y2="0" stroke="black"/><line transform="translate(37.5,271.42856785714287)" x2="0" y2="0" stroke="black"/><line transform="translate(62.5,268.7258678571429)" x2="0" y2="0" stroke="black"/><line transform="translate(87.5,259.6638642857143)" x2="0" y2="0" stroke="black"/><line transform="translate(112.5,261.7346892857143)" x2="0" y2="0" stroke="black"/><line transform="translate(137.5,258.8571428571429)" x2="0" y2="0" stroke="black"/><line transform="translate(162.5,263.1579)" x2="0" y2="-1.5390964285713835" stroke="black"/><line transform="translate(187.5,255.93803571428572)" x2="0" y2="0" stroke="black"/><line transform="translate(212.5,253.2991714285714)" x2="0" y2="0" stroke="black"/><line transform="translate(237.5,257.09995714285714)" x2="0" y2="-4.825060714285712" stroke="black"/><line transform="translate(262.5,246.887475)" x2="0" y2="-0.49917857142852995" stroke="black"/><line transform="translate(287.5,242.90120357142857)" x2="0" y2="-0.48841071428569194" stroke="black"/><line transform="translate(312.5,243.14182499999998)" x2="0" y2="-2.397417857142841" stroke="black"/><line transform="translate(337.5,240.1221964285714)" x2="0" y2="-3.280092857142847" stroke="black"/><line transform="translate(362.5,236.50445357142857)" x2="0" y2="-0.477407142857146" stroke="black"/><line transform="translate(387.5,223.61059285714288)" x2="0" y2="0" stroke="black"/><line transform="translate(412.5,231.235425)" x2="0" y2="0" stroke="black"/><line transform="translate(437.5,231.70960714285715)" x2="0" y2="-0.28103571428570717" stroke="black"/><line transform="translate(462.5,219.33118928571426)" x2="0" y2="0" stroke="black"/><line transform="translate(487.5,227.37616071428573)" x2="0" y2="-1.926524999999998" stroke="black"/></g><g class="mark-rule role-mark layer_0_layer_0_layer_1_layer_1_marks" role="graphics-symbol" aria-roledescription="rule mark container"><line transform="translate(12.5,289.2857142857143)" x2="0" y2="0" stroke="black"/><line transform="translate(37.5,271.42856785714287)" x2="0" y2="0" stroke="black"/><line transform="translate(62.5,268.7258678571429)" x2="0" y2="0" stroke="black"/><line transform="translate(87.5,259.6638642857143)" x2="0" y2="0" stroke="black"/><line transform="translate(112.5,261.7346892857143)" x2="0" y2="0" stroke="black"/><line transform="translate(137.5,258.6734678571429)" x2="0" y2="0" stroke="black"/><line transform="translate(162.5,260.1626035714286)" x2="0" y2="-1.2240535714286125" stroke="black"/><line transform="translate(187.5,254.47539642857143)" x2="0" y2="-0.18968571428573" stroke="black"/><line transform="translate(212.5,252.8765357142857)" x2="0" y2="-0.5028428571428378" stroke="black"/><line transform="translate(237.5,246.02375357142856)" x2="0" y2="-0.9688071428571163" stroke="black"/><line transform="translate(262.5,244.23963214285715)" x2="0" y2="-0.32897142857140693" stroke="black"/><line transform="translate(287.5,240.80164285714284)" x2="0" y2="-0.8642035714285612" stroke="black"/><line transform="translate(312.5,232.79290714285713)" x2="0" y2="-6.525985714285696" stroke="black"/><line transform="translate(337.5,232.7231142857143)" x2="0" y2="-2.5983321428571458" stroke="black"/><line transform="translate(362.5,234.4320642857143)" x2="0" y2="-2.339507142857144" stroke="black"/><line transform="translate(387.5,216.5274107142857)" x2="0" y2="-2.6622749999999655" stroke="black"/><line transform="translate(412.5,227.2686857142857)" x2="0" y2="-1.8285857142857083" stroke="black"/><line transform="translate(437.5,229.29481071428572)" x2="0" y2="-0.46305000000000973" stroke="black"/><line transform="translate(462.5,214.49763214285713)" x2="0" y2="-3.548571428571421" stroke="black"/><line transform="translate(487.5,218.65785)" x2="0" y2="-6.07680000000002" stroke="black"/></g><g class="mark-rect role-mark layer_0_layer_1_layer_0_marks" role="graphics-symbol" aria-roledescription="rect mark container"><path d="M5.5,289.2857142857143h14v0h-14Z" fill="#f58518"/><path d="M30.5,271.42856785714287h14v0h-14Z" fill="#f58518"/><path d="M55.5,268.7258678571429h14v0h-14Z" fill="#f58518"/><path d="M80.5,259.6638642857143h14v0h-14Z" fill="#f58518"/><path d="M105.5,261.7346892857143h14v0h-14Z" fill="#f58518"/><path d="M130.5,258.6734678571429h14v0.18367499999999382h-14Z" fill="#f58518"/><path d="M155.5,260.1626035714286h14v1.456200000000024h-14Z" fill="#f58518"/><path d="M180.5,254.47539642857143h14v1.462639285714289h-14Z" fill="#f58518"/><path d="M205.5,252.8765357142857h14v0.4226357142857182h-14Z" fill="#f58518"/><path d="M230.5,246.02375357142856h14v6.251142857142867h-14Z" fill="#f58518"/><path d="M255.5,244.23963214285715h14v2.148664285714318h-14Z" fill="#f58518"/><path d="M280.5,240.80164285714284h14v1.6111500000000376h-14Z" fill="#f58518"/><path d="M305.5,232.79290714285713h14v7.95150000000001h-14Z" fill="#f58518"/><path d="M330.5,232.7231142857143h14v4.118989285714264h-14Z" fill="#f58518"/><path d="M355.5,234.4320642857143h14v1.594982142857134h-14Z" fill="#f58518"/><path d="M380.5,216.5274107142857h14v7.083182142857169h-14Z" fill="#f58518"/><path d="M405.5,227.2686857142857h14v3.966739285714283h-14Z" fill="#f58518"/><path d="M430.5,229.29481071428572h14v2.133760714285728h-14Z" fill="#f58518"/><path d="M455.5,214.49763214285713h14v4.833557142857131h-14Z" fill="#f58518"/><path d="M480.5,218.65785h14v6.791785714285737h-14Z" fill="#f58518"/></g><g class="mark-rect role-mark layer_0_layer_1_layer_1_marks" role="graphics-symbol" aria-roledescription="rect mark container"><path d="M5.5,288.7857142857143h14v1h-14Z" fill="white" opacity="0.7"/><path d="M30.5,270.92856785714287h14v1h-14Z" fill="white" opacity="0.7"/><path d="M55.5,268.2258678571429h14v1h-14Z" fill="white" opacity="0.7"/><path d="M80.5,259.1638642857143h14v1h-14Z" fill="white" opacity="0.7"/><path d="M105.5,261.2346892857143h14v1h-14Z" fill="white" opacity="0.7"/><path d="M130.5,258.1734678571429h14v1h-14Z" fill="white" opacity="0.7"/><path d="M155.5,260.9173214285714h14v1h-14Z" fill="white" opacity="0.7"/><path d="M180.5,254.3500857142857h14v1h-14Z" fill="white" opacity="0.7"/><path d="M205.5,252.72926071428572h14v1h-14Z" fill="white" opacity="0.7"/><path d="M230.5,245.99545h14v1h-14Z" fill="white" opacity="0.7"/><path d="M255.5,244.80886428571426h14v1h-14Z" fill="white" opacity="0.7"/><path d="M280.5,241.04922142857146h14v1h-14Z" fill="white" opacity="0.7"/><path d="M305.5,235.40391785714283h14v1h-14Z" fill="white" opacity="0.7"/><path d="M330.5,234.13035357142857h14v1h-14Z" fill="white" opacity="0.7"/><path d="M355.5,235.0423964285714h14v1h-14Z" fill="white" opacity="0.7"/><path d="M380.5,217.04679999999996h14v1h-14Z" fill="white" opacity="0.7"/><path d="M405.5,227.14358928571428h14v1h-14Z" fill="white" opacity="0.7"/><path d="M430.5,229.60546428571428h14v1h-14Z" fill="white" opacity="0.7"/><path d="M455.5,216.69516785714288h14v1h-14Z" fill="white" opacity="0.7"/><path d="M480.5,220.73658571428572h14v1h-14Z" fill="white" opacity="0.7"/></g><g class="mark-symbol role-mark layer_1_layer_0_layer_0_marks" role="graphics-symbol" aria-roledescription="symbol mark container"><path transform="translate(87.5,190.2857142857143)" d="M2.7386127875258306,0A2.7386127875258306,2.7386127875258306,0,1,1,-2.7386127875258306,0A2.7386127875258306,2.7386127875258306,0,1,1,2.7386127875258306,0" stroke="#4c78a8" stroke-width="2" opacity="0.7"/><path transform="translate(87.5,190.2857142857143)" d="M2.7386127875258306,0A2.7386127875258306,2.7386127875258306,0,1,1,-2.7386127875258306,0A2.7386127875258306,2.7386127875258306,0,1,1,2.7386127875258306,0" stroke="#4c78a8" stroke-width="2" opacity="0.7"/><path transform="translate(87.5,180.7453392857143)" d="M2.7386127875258306,0A2.7386127875258306,2.7386127875258306,0,1,1,-2.7386127875258306,0A2.7386127875258306,2.7386127875258306,0,1,1,2.7386127875258306,0" stroke="#4c78a8" stroke-width="2" opacity="0.7"/><path transform="translate(112.5,202.5974035714286)" d="M2.7386127875258306,0A2.7386127875258306,2.7386127875258306,0,1,1,-2.7386127875258306,0A2.7386127875258306,2.7386127875258306,0,1,1,2.7386127875258306,0" stroke="#4c78a8" stroke-width="2" opacity="0.7"/><path transform="translate(112.5,200.7936535714286)" d="M2.7386127875258306,0A2.7386127875258306,2.7386127875258306,0,1,1,-2.7386127875258306,0A2.7386127875258306,2.7386127875258306,0,1,1,2.7386127875258306,0" stroke="#4c78a8" stroke-width="2" opacity="0.7"/><path transform="translate(137.5,169.61770714285714)" d="M2.7386127875258306,0A2.7386127875258306,2.7386127875258306,0,1,1,-2.7386127875258306,0A2.7386127875258306,2.7386127875258306,0,1,1,2.7386127875258306,0" stroke="#4c78a8" stroke-width="2" opacity="0.7"/><path transform="translate(162.5,155.88235714285716)" d="M2.7386127875258306,0A2.7386127875258306,2.7386127875258306,0,1,1,-2.7386127875258306,0A2.7386127875258306,2.7386127875258306,0,1,1,2.7386127875258306,0" stroke="#4c78a8" stroke-width="2" opacity="0.7"/><path transform="translate(187.5,82.74398571428573)" d="M2.7386127875258306,0A2.7386127875258306,2.7386127875258306,0,1,1,-2.7386127875258306,0A2.7386127875258306,2.7386127875258306,0,1,1,2.7386127875258306,0" stroke="#4c78a8" stroke-width="2" opacity="0.7"/><path transform="translate(187.5,82.74398571428573)" d="M2.7386127875258306,0A2.7386127875258306,2.7386127875258306,0,1,1,-2.7386127875258306,0A2.7386127875258306,2.7386127875258306,0,1,1,2.7386127875258306,0" stroke="#4c78a8" stroke-width="2" opacity="0.7"/><path transform="translate(187.5,78.354975)" d="M2.7386127875258306,0A2.7386127875258306,2.7386127875258306,0,1,1,-2.7386127875258306,0A2.7386127875258306,2.7386127875258306,0,1,1,2.7386127875258306,0" stroke="#4c78a8" stroke-width="2" opacity="0.7"/><path transform="translate(262.5,91.05179999999999)" d="M2.7386127875258306,0A2.7386127875258306,2.7386127875258306,0,1,1,-2.7386127875258306,0A2.7386127875258306,2.7386127875258306,0,1,1,2.7386127875258306,0" stroke="#4c78a8" stroke-width="2" opacity="0.7"/><path transform="translate(262.5,99.14486785714286)" d="M2.7386127875258306,0A2.7386127875258306,2.7386127875258306,0,1,1,-2.7386127875258306,0A2.7386127875258306,2.7386127875258306,0,1,1,2.7386127875258306,0" stroke="#4c78a8" stroke-width="2" opacity="0.7"/><path transform="translate(287.5,62.637364285714305)" d="M2.7386127875258306,0A2.7386127875258306,2.7386127875258306,0,1,1,-2.7386127875258306,0A2.7386127875258306,2.7386127875258306,0,1,1,2.7386127875258306,0" stroke="#4c78a8" stroke-width="2" opacity="0.7"/><path transform="translate(287.5,71.42857500000002)" d="M2.7386127875258306,0A2.7386127875258306,2.7386127875258306,0,1,1,-2.7386127875258306,0A2.7386127875258306,2.7386127875258306,0,1,1,2.7386127875258306,0" stroke="#4c78a8" stroke-width="2" opacity="0.7"/><path transform="translate(287.5,70.72091785714287)" d="M2.7386127875258306,0A2.7386127875258306,2.7386127875258306,0,1,1,-2.7386127875258306,0A2.7386127875258306,2.7386127875258306,0,1,1,2.7386127875258306,0" stroke="#4c78a8" stroke-width="2" opacity="0.7"/><path transform="translate(287.5,67.11590357142857)" d="M2.7386127875258306,0A2.7386127875258306,2.7386127875258306,0,1,1,-2.7386127875258306,0A2.7386127875258306,2.7386127875258306,0,1,1,2.7386127875258306,0" stroke="#4c78a8" stroke-width="2" opacity="0.7"/><path transform="translate(312.5,95.75456785714285)" d="M2.7386127875258306,0A2.7386127875258306,2.7386127875258306,0,1,1,-2.7386127875258306,0A2.7386127875258306,2.7386127875258306,0,1,1,2.7386127875258306,0" stroke="#4c78a8" stroke-width="2" opacity="0.7"/><path transform="translate(312.5,95.31055714285715)" d="M2.7386127875258306,0A2.7386127875258306,2.7386127875258306,0,1,1,-2.7386127875258306,0A2.7386127875258306,2.7386127875258306,0,1,1,2.7386127875258306,0" stroke="#4c78a8" stroke-width="2" opacity="0.7"/><path transform="translate(337.5,85.0091357142857)" d="M2.7386127875258306,0A2.7386127875258306,2.7386127875258306,0,1,1,-2.7386127875258306,0A2.7386127875258306,2.7386127875258306,0,1,1,2.7386127875258306,0" stroke="#4c78a8" stroke-width="2" opacity="0.7"/><path transform="translate(337.5,68.95873928571426)" d="M2.7386127875258306,0A2.7386127875258306,2.7386127875258306,0,1,1,-2.7386127875258306,0A2.7386127875258306,2.7386127875258306,0,1,1,2.7386127875258306,0" stroke="#4c78a8" stroke-width="2" opacity="0.7"/><path transform="translate(362.5,76.09464642857145)" d="M2.7386127875258306,0A2.7386127875258306,2.7386127875258306,0,1,1,-2.7386127875258306,0A2.7386127875258306,2.7386127875258306,0,1,1,2.7386127875258306,0" stroke="#4c78a8" stroke-width="2" opacity="0.7"/><path transform="translate(437.5,52.28656071428571)" d="M2.7386127875258306,0A2.7386127875258306,2.7386127875258306,0,1,1,-2.7386127875258306,0A2.7386127875258306,2.7386127875258306,0,1,1,2.7386127875258306,0" stroke="#4c78a8" stroke-width="2" opacity="0.7"/><path transform="translate(437.5,50.55603214285714)" d="M2.7386127875258306,0A2.7386127875258306,2.7386127875258306,0,1,1,-2.7386127875258306,0A2.7386127875258306,2.7386127875258306,0,1,1,2.7386127875258306,0" stroke="#4c78a8" stroke-width="2" opacity="0.7"/><path transform="translate(437.5,49.05335357142858)" d="M2.7386127875258306,0A2.7386127875258306,2.7386127875258306,0,1,1,-2.7386127875258306,0A2.7386127875258306,2.7386127875258306,0,1,1,2.7386127875258306,0" stroke="#4c78a8" stroke-width="2" opacity="0.7"/><path transform="translate(487.5,10.913035714285712)" d="M2.7386127875258306,0A2.7386127875258306,2.7386127875258306,0,1,1,-2.7386127875258306,0A2.7386127875258306,2.7386127875258306,0,1,1,2.7386127875258306,0" stroke="#4c78a8" stroke-width="2" opacity="0.7"/></g><g class="mark-rule role-mark layer_1_layer_0_layer_1_layer_0_marks" role="graphics-symbol" aria-roledescription="rule mark container"><line transform="translate(12.5,289.2857142857143)" x2="0" y2="0" stroke="black"/><line transform="translate(37.5,278.57142857142856)" x2="0" y2="0" stroke="black"/><line transform="translate(62.5,239.09773928571428)" x2="0" y2="0" stroke="black"/><line transform="translate(87.5,185.71428214285717)" x2="0" y2="0" stroke="black"/><line transform="translate(112.5,204.3367392857143)" x2="0" y2="0" stroke="black"/><line transform="translate(137.5,165.8385107142857)" x2="0" y2="-1.9729607142857049" stroke="black"/><line transform="translate(162.5,162.6168214285714)" x2="0" y2="0" stroke="black"/><line transform="translate(187.5,80.57142857142857)" x2="0" y2="0" stroke="black"/><line transform="translate(212.5,127.38753214285715)" x2="0" y2="-0.9589607142857375" stroke="black"/><line transform="translate(237.5,119.92796785714286)" x2="0" y2="0" stroke="black"/><line transform="translate(262.5,88.73015357142856)" x2="0" y2="0" stroke="black"/><line transform="translate(287.5,70.00886785714286)" x2="0" y2="0" stroke="black"/><line transform="translate(312.5,94.41671785714286)" x2="0" y2="0" stroke="black"/><line transform="translate(337.5,64.8)" x2="0" y2="0" stroke="black"/><line transform="translate(362.5,78.15513214285714)" x2="0" y2="-0.34077857142855805" stroke="black"/><line transform="translate(387.5,13.165264285714295)" x2="0" y2="-1.4129785714285799" stroke="black"/><line transform="translate(412.5,58.53538928571428)" x2="0" y2="-0.2772321428571587" stroke="black"/><line transform="translate(437.5,49.80695357142857)" x2="0" y2="0" stroke="black"/><line transform="translate(462.5,26.29688571428572)" x2="0" y2="0" stroke="black"/><line transform="translate(487.5,10.669082142857134)" x2="0" y2="-0.2443714285714318" stroke="black"/></g><g class="mark-rule role-mark layer_1_layer_0_layer_1_layer_1_marks" role="graphics-symbol" aria-roledescription="rule mark container"><line transform="translate(12.5,285.7142892857143)" x2="0" y2="0" stroke="black"/><line transform="translate(37.5,278.57142857142856)" x2="0" y2="0" stroke="black"/><line transform="translate(62.5,235.71428571428572)" x2="0" y2="-3.78151071428573" stroke="black"/><line transform="translate(87.5,185.71428214285717)" x2="0" y2="0" stroke="black"/><line transform="translate(112.5,204.3367392857143)" x2="0" y2="0" stroke="black"/><line transform="translate(137.5,161.83369285714284)" x2="0" y2="-2.093432142857125" stroke="black"/><line transform="translate(162.5,159.99999642857142)" x2="0" y2="0" stroke="black"/><line transform="translate(187.5,80.57142857142857)" x2="0" y2="0" stroke="black"/><line transform="translate(212.5,125.45889642857144)" x2="0" y2="0" stroke="black"/><line transform="translate(237.5,119.168175)" x2="0" y2="0" stroke="black"/><line transform="translate(262.5,87.94476428571429)" x2="0" y2="-0.7912499999999909" stroke="black"/><line transform="translate(287.5,70.00886785714286)" x2="0" y2="0" stroke="black"/><line transform="translate(312.5,93.96686785714287)" x2="0" y2="0" stroke="black"/><line transform="translate(337.5,63.380282142857126)" x2="0" y2="-0.47705357142855576" stroke="black"/><line transform="translate(362.5,77.12964642857143)" x2="0" y2="-0.34392857142856315" stroke="black"/><line transform="translate(387.5,9.846514285714303)" x2="0" y2="0" stroke="black"/><line transform="translate(412.5,57.422646428571426)" x2="0" y2="0" stroke="black"/><line transform="translate(437.5,49.55626071428574)" x2="0" y2="-0.25120714285718293" stroke="black"/><line transform="translate(462.5,25.530214285714294)" x2="0" y2="0" stroke="black"/><line transform="translate(487.5,10.179932142857172)" x2="0" y2="0" stroke="black"/></g><g class="mark-rect role-mark layer_1_layer_1_layer_0_marks" role="graphics-symbol" aria-roledescription="rect mark container"><path d="M5.5,285.7142892857143h14v3.5714249999999765h-14Z" fill="#4c78a8"/><path d="M30.5,278.57142857142856h14v0h-14Z" fill="#4c78a8"/><path d="M55.5,235.71428571428572h14v3.3834535714285607h-14Z" fill="#4c78a8"/><path d="M80.5,185.71428214285717h14v0h-14Z" fill="#4c78a8"/><path d="M105.5,204.3367392857143h14v0h-14Z" fill="#4c78a8"/><path d="M130.5,161.83369285714284h14v2.031857142857149h-14Z" fill="#4c78a8"/><path d="M155.5,159.99999642857142h14v2.6168249999999773h-14Z" fill="#4c78a8"/><path d="M180.5,80.57142857142857h14v0h-14Z" fill="#4c78a8"/><path d="M205.5,125.45889642857144h14v0.969674999999981h-14Z" fill="#4c78a8"/><path d="M230.5,119.168175h14v0.7597928571428554h-14Z" fill="#4c78a8"/><path d="M255.5,87.94476428571429h14v0.7853892857142739h-14Z" fill="#4c78a8"/><path d="M280.5,70.00886785714286h14v0h-14Z" fill="#4c78a8"/><path d="M305.5,93.96686785714287h14v0.44984999999998365h-14Z" fill="#4c78a8"/><path d="M330.5,63.380282142857126h14v1.4197178571428708h-14Z" fill="#4c78a8"/><path d="M355.5,77.12964642857143h14v0.6847071428571496h-14Z" fill="#4c78a8"/><path d="M380.5,9.846514285714303h14v1.9057714285714127h-14Z" fill="#4c78a8"/><path d="M405.5,57.422646428571426h14v0.8355107142856966h-14Z" fill="#4c78a8"/><path d="M430.5,49.55626071428574h14v0.2506928571428304h-14Z" fill="#4c78a8"/><path d="M455.5,25.530214285714294h14v0.7666714285714278h-14Z" fill="#4c78a8"/><path d="M480.5,10.179932142857172h14v0.24477857142852955h-14Z" fill="#4c78a8"/></g><g class="mark-rect role-mark layer_1_layer_1_layer_1_marks" role="graphics-symbol" aria-roledescription="rect mark container"><path d="M5.5,285.2142892857143h14v1h-14Z" fill="white" opacity="0.7"/><path d="M30.5,278.07142857142856h14v1h-14Z" fill="white" opacity="0.7"/><path d="M55.5,238.59773928571428h14v1h-14Z" fill="white" opacity="0.7"/><path d="M80.5,185.21428214285717h14v1h-14Z" fill="white" opacity="0.7"/><path d="M105.5,203.8367392857143h14v1h-14Z" fill="white" opacity="0.7"/><path d="M130.5,163.36554999999998h14v1h-14Z" fill="white" opacity="0.7"/><path d="M155.5,160.82075714285713h14v1h-14Z" fill="white" opacity="0.7"/><path d="M180.5,80.07142857142857h14v1h-14Z" fill="white" opacity="0.7"/><path d="M205.5,124.95889642857144h14v1h-14Z" fill="white" opacity="0.7"/><path d="M230.5,118.668175h14v1h-14Z" fill="white" opacity="0.7"/><path d="M255.5,88.23015357142856h14v1h-14Z" fill="white" opacity="0.7"/><path d="M280.5,69.50886785714286h14v1h-14Z" fill="white" opacity="0.7"/><path d="M305.5,93.46686785714287h14v1h-14Z" fill="white" opacity="0.7"/><path d="M330.5,63.828657142857125h14v1h-14Z" fill="white" opacity="0.7"/><path d="M355.5,76.62964642857143h14v1h-14Z" fill="white" opacity="0.7"/><path d="M380.5,10.302539285714275h14v1h-14Z" fill="white" opacity="0.7"/><path d="M405.5,57.20179642857144h14v1h-14Z" fill="white" opacity="0.7"/><path d="M430.5,49.30695357142857h14v1h-14Z" fill="white" opacity="0.7"/><path d="M455.5,25.28624285714286h14v1h-14Z" fill="white" opacity="0.7"/><path d="M480.5,9.679932142857172h14v1h-14Z" fill="white" opacity="0.7"/></g><g class="mark-group role-legend" role="graphics-symbol" aria-roledescription="legend" aria-label="Symbol legend titled 'blas' for fill color with 2 values: veclib, vortex"><g transform="translate(518,0)"><path class="background" aria-hidden="true" d="M0,0h44v40h-44Z" pointer-events="none"/><g><g class="mark-group role-legend-entry"><g transform="translate(0,16)"><path class="background" aria-hidden="true" d="M0,0h0v0h0Z" pointer-events="none"/><g><g class="mark-group role-scope" role="graphics-object" aria-roledescription="group mark container"><g transform="translate(0,0)"><path class="background" aria-hidden="true" d="M0,0h43.2314453125v11h-43.2314453125Z" pointer-events="none" opacity="1"/><g><g class="mark-symbol role-legend-symbol" pointer-events="none"><path transform="translate(6,6)" d="M-5,-5h10v10h-10Z" fill="#4c78a8" stroke-width="1.5" opacity="1"/></g><g class="mark-text role-legend-label" pointer-events="none"><text text-anchor="start" transform="translate(16,9)" font-family="sans-serif" font-size="10px" fill="#000" opacity="1">veclib</text></g></g><path class="foreground" aria-hidden="true" d="" pointer-events="none" display="none"/></g><g transform="translate(0,13)"><path class="background" aria-hidden="true" d="M0,0h43.2314453125v11h-43.2314453125Z" pointer-events="none" opacity="1"/><g><g class="mark-symbol role-legend-symbol" pointer-events="none"><path transform="translate(6,6)" d="M-5,-5h10v10h-10Z" fill="#f58518" stroke-width="1.5" opacity="1"/></g><g class="mark-text role-legend-label" pointer-events="none"><text text-anchor="start" transform="translate(16,9)" font-family="sans-serif" font-size="10px" fill="#000" opacity="1">vortex</text></g></g><path class="foreground" aria-hidden="true" d="" pointer-events="none" display="none"/></g></g></g><path class="foreground" aria-hidden="true" d="" pointer-events="none" display="none"/></g></g><g class="mark-text role-legend-title" pointer-events="none"><text text-anchor="start" transform="translate(0,9)" font-family="sans-serif" font-size="11px" font-weight="bold" fill="#000" opacity="1">blas</text></g></g><path class="foreground" aria-hidden="true" d="" pointer-events="none" display="none"/></g></g><g class="mark-group role-title"><g transform="translate(250,-17)"><path class="background" aria-hidden="true" d="M0,0h0v0h0Z" pointer-events="none"/><g><g class="mark-text role-title-text" role="graphics-symbol" aria-roledescription="title" aria-label="Title text 'dgemm'" pointer-events="none"><text text-anchor="middle" transform="translate(0,10)" font-family="sans-serif" font-size="13px" font-weight="bold" fill="#000" opacity="1">dgemm</text></g></g><path class="foreground" aria-hidden="true" d="" pointer-events="none" display="none"/></g></g></g><path class="foreground" aria-hidden="true" d="" display="none"/></g></g></g></svg>