<svg xmlns="http://www.w3.org/2000/svg" xmlns:xlink="http://www.w3.org/1999/xlink" version="1.1" class="marks" width="762" height="471" viewBox="0 0 762 471"><rect width="762" height="471" fill="white"/><g fill="none" stroke-miterlimit="10" transform="translate(64,27)"><g class="mark-group role-frame root" role="graphics-object" aria-roledescription="group mark container"><g transform="translate(0,0)"><path class="background" aria-hidden="true" d="M0.5,0.5h600v400h-600Z" stroke="#ddd"/><g><g class="mark-group role-axis" role="graphics-symbol" aria-roledescription="axis" aria-label="Y-axis for a linear scale with values from 0 to 100,000"><g transform="translate(0.5,0.5)"><path class="background" aria-hidden="true" d="M0,0h0v0h0Z" pointer-events="none"/><g><g class="mark-rule role-axis-grid" pointer-events="none"><line transform="translate(0,400)" x2="600" y2="0" stroke="#ddd" stroke-width="1" opacity="1"/><line transform="translate(0,360)" x2="600" y2="0" stroke="#ddd" stroke-width="1" opacity="1"/><line transform="translate(0,320)" x2="600" y2="0" stroke="#ddd" stroke-width="1" opacity="1"/><line transform="translate(0,280)" x2="600" y2="0" stroke="#ddd" stroke-width="1" opacity="1"/><line transform="translate(0,240)" x2="600" y2="0" stroke="#ddd" stroke-width="1" opacity="1"/><line transform="translate(0,200)" x2="600" y2="0" stroke="#ddd" stroke-width="1" opacity="1"/><line transform="translate(0,160)" x2="600" y2="0" stroke="#ddd" stroke-width="1" opacity="1"/><line transform="translate(0,120)" x2="600" y2="0" stroke="#ddd" stroke-width="1" opacity="1"/><line transform="translate(0,80)" x2="600" y2="0" stroke="#ddd" stroke-width="1" opacity="1"/><line transform="translate(0,40)" x2="600" y2="0" stroke="#ddd" stroke-width="1" opacity="1"/><line transform="translate(0,0)" x2="600" y2="0" stroke="#ddd" stroke-width="1" opacity="1"/></g></g><path class="foreground" aria-hidden="true" d="" pointer-events="none" display="none"/></g></g><g class="mark-group role-axis" role="graphics-symbol" aria-roledescription="axis" aria-label="X-axis titled 'M, N, K' for a discrete scale with 20 values: 10, 20, 30, 40, 50, ending with 200"><g transform="translate(0.5,400.5)"><path class="background" aria-hidden="true" d="M0,0h0v0h0Z" pointer-events="none"/><g><g class="mark-rule role-axis-tick" pointer-events="none"><line transform="translate(15,0)" x2="0" y2="5" stroke="#888" stroke-width="1" opacity="1"/><line transform="translate(45,0)" x2="0" y2="5" stroke="#888" stroke-width="1" opacity="1"/><line transform="translate(75,0)" x2="0" y2="5" stroke="#888" stroke-width="1" opacity="1"/><line transform="translate(105,0)" x2="0" y2="5" stroke="#888" stroke-width="1" opacity="1"/><line transform="translate(135,0)" x2="0" y2="5" stroke="#888" stroke-width="1" opacity="1"/><line transform="translate(165,0)" x2="0" y2="5" stroke="#888" stroke-width="1" opacity="1"/><line transform="translate(195,0)" x2="0" y2="5" stroke="#888" stroke-width="1" opacity="1"/><line transform="translate(225,0)" x2="0" y2="5" stroke="#888" stroke-width="1" opacity="1"/><line transform="translate(255,0)" x2="0" y2="5" stroke="#888" stroke-width="1" opacity="1"/><line transform="translate(285,0)" x2="0" y2="5" stroke="#888" stroke-width="1" opacity="1"/><line transform="translate(315,0)" x2="0" y2="5" stroke="#888" stroke-width="1" opacity="1"/><line transform="translate(345,0)" x2="0" y2="5" stroke="#888" stroke-width="1" opacity="1"/><line transform="translate(375,0)" x2="0" y2="5" stroke="#888" stroke-width="1" opacity="1"/><line transform="translate(405,0)" x2="0" y2="5" stroke="#888" stroke-width="1" opacity="1"/><line transform="translate(435,0)" x2="0" y2="5" stroke="#888" stroke-width="1" opacity="1"/><line transform="translate(465,0)" x2="0" y2="5" stroke="#888" stroke-width="1" opacity="1"/><line transform="translate(495,0)" x2="0" y2="5" stroke="#888" stroke-width="1" opacity="1"/><line transform="translate(525,0)" x2="0" y2="5" stroke="#888" stroke-width="1" opacity="1"/><line transform="translate(555,0)" x2="0" y2="5" stroke="#888" stroke-width="1" opacity="1"/><line transform="translate(585,0)" x2="0" y2="5" stroke="#888" stroke-width="1" opacity="1"/></g><g class="mark-text role-axis-label" pointer-events="none"><text text-anchor="end" transform="translate(14.5,7) rotate(270) translate(0,3)" font-family="sans-serif" font-size="10px" fill="#000" opacity="1">10</text><text text-anchor="end" transform="translate(44.5,7) rotate(270) translate(0,3)" font-family="sans-serif" font-size="10px" fill="#000" opacity="1">20</text><text text-anchor="end" transform="translate(74.5,7) rotate(270) translate(0,3)" font-family="sans-serif" font-size="10px" fill="#000" opacity="1">30</text><text text-anchor="end" transform="translate(104.5,7) rotate(270) translate(0,3)" font-family="sans-serif" font-size="10px" fill="#000" opacity="1">40</text><text text-anchor="end" transform="translate(134.5,7) rotate(270) translate(0,3)" font-family="sans-serif" font-size="10px" fill="#000" opacity="1">50</text><text text-anchor="end" transform="translate(164.5,7) rotate(270) translate(0,3)" font-family="sans-serif" font-size="10px" fill="#000" opacity="1">60</text><text text-anchor="end" transform="translate(194.5,7) rotate(270) translate(0,3)" font-family="sans-serif" font-size="10px" fill="#000" opacity="1">70</text><text text-anchor="end" transform="translate(224.5,7) rotate(270) translate(0,3)" font-family="sans-serif" font-size="10px" fill="#000" opacity="1">80</text><text text-anchor="end" transform="translate(254.5,7) rotate(270) translate(0,3)" font-family="sans-serif" font-size="10px" fill="#000" opacity="1">90</text><text text-anchor="end" transform="translate(284.5,7) rotate(270) translate(0,3)" font-family="sans-serif" font-size="10px" fill="#000" opacity="1">100</text><text text-anchor="end" transform="translate(314.5,7) rotate(270) translate(0,3)" font-family="sans-serif" font-size="10px" fill="#000" opacity="1">110</text><text text-anchor="end" transform="translate(344.5,7) rotate(270) translate(0,3)" font-family="sans-serif" font-size="10px" fill="#000" opacity="1">120</text><text text-anchor="end" transform="translate(374.5,7) rotate(270) translate(0,3)" font-family="sans-serif" font-size="10px" fill="#000" opacity="1">130</text><text text-anchor="end" transform="translate(404.5,7) rotate(270) translate(0,3)" font-family="sans-serif" font-size="10px" fill="#000" opacity="1">140</text><text text-anchor="end" transform="translate(434.5,7) rotate(270) translate(0,3)" font-family="sans-serif" font-size="10px" fill="#000" opacity="1">150</text><text text-anchor="end" transform="translate(464.5,7) rotate(270) translate(0,3)" font-family="sans-serif" font-size="10px" fill="#000" opacity="1">160</text><text text-anchor="end" transform="translate(494.5,7) rotate(270) translate(0,3)" font-family="sans-serif" font-size="10px" fill="#000" opacity="1">170</text><text text-anchor="end" transform="translate(524.5,7) rotate(270) translate(0,3)" font-family="sans-serif" font-size="10px" fill="#000" opacity="1">180</text><text text-anchor="end" transform="translate(554.5,7) rotate(270) translate(0,3)" font-family="sans-serif" font-size="10px" fill="#000" opacity="1">190</text><text text-anchor="end" transform="translate(584.5,7) rotate(270) translate(0,3)" font-family="sans-serif" font-size="10px" fill="#000" opacity="1">200</text></g><g class="mark-rule role-axis-domain" pointer-events="none"><line transform="translate(0,0)" x2="600" y2="0" stroke="#888" stroke-width="1" opacity="1"/></g><g class="mark-text role-axis-title" pointer-events="none"><text text-anchor="middle" transform="translate(300,36.6845703125)" font-family="sans-serif" font-size="11px" font-weight="bold" fill="#000" opacity="1">M, N, K</text></g></g><path class="foreground" aria-hidden="true" d="" pointer-events="none" display="none"/></g></g><g class="mark-group role-axis" role="graphics-symbol" aria-roledescription="axis" aria-label="Y-axis titled 'MFlops' for a linear scale with values from 0 to 100,000"><g transform="translate(0.5,0.5)"><path class="background" aria-hidden="true" d="M0,0h0v0h0Z" pointer-events="none"/><g><g class="mark-rule role-axis-tick" pointer-events="none"><line transform="translate(0,400)" x2="-5" y2="0" stroke="#888" stroke-width="1" opacity="1"/><line transform="translate(0,360)" x2="-5" y2="0" stroke="#888" stroke-width="1" opacity="1"/><line transform="translate(0,320)" x2="-5" y2="0" stroke="#888" stroke-width="1" opacity="1"/><line transform="translate(0,280)" x2="-5" y2="0" stroke="#888" stroke-width="1" opacity="1"/><line transform="translate(0,240)" x2="-5" y2="0" stroke="#888" stroke-width="1" opacity="1"/><line transform="translate(0,200)" x2="-5" y2="0" stroke="#888" stroke-width="1" opacity="1"/><line transform="translate(0,160)" x2="-5" y2="0" stroke="#888" stroke-width="1" opacity="1"/><line transform="translate(0,120)" x2="-5" y2="0" stroke="#888" stroke-width="1" opacity="1"/><line transform="translate(0,80)" x2="-5" y2="0" stroke="#888" stroke-width="1" opacity="1"/><line transform="translate(0,40)" x2="-5" y2="0" stroke="#888" stroke-width="1" opacity="1"/><line transform="translate(0,0)" x2="-5" y2="0" stroke="#888" stroke-width="1" opacity="1"/></g><g class="mark-text role-axis-label" pointer-events="none"><text text-anchor="end" transform="translate(-7,403)" font-family="sans-serif" font-size="10px" fill="#000" opacity="1">0</text><text text-anchor="end" transform="translate(-7,363)" font-family="sans-serif" font-size="10px" fill="#000" opacity="1">10,000</text><text text-anchor="end" transform="translate(-7,323)" font-family="sans-serif" font-size="10px" fill="#000" opacity="1">20,000</text><text text-anchor="end" transform="translate(-7,283)" font-family="sans-serif" font-size="10px" fill="#000" opacity="1">30,000</text><text text-anchor="end" transform="translate(-7,243)" font-family="sans-serif" font-size="10px" fill="#000" opacity="1">40,000</text><text text-anchor="end" transform="translate(-7,203)" font-family="sans-serif" font-size="10px" fill="#000" opacity="1">50,000</text><text text-anchor="end" transform="translate(-7,163)" font-family="sans-serif" font-size="10px" fill="#000" opacity="1">60,000</text><text text-anchor="end" transform="translate(-7,123.00000000000001)" font-family="sans-serif" font-size="10px" fill="#000" opacity="1">70,000</text><text text-anchor="end" transform="translate(-7,82.99999999999999)" font-family="sans-serif" font-size="10px" fill="#000" opacity="1">80,000</text><text text-anchor="end" transform="translate(-7,42.99999999999999)" font-family="sans-serif" font-size="10px" fill="#000" opacity="1">90,000</text><text text-anchor="end" transform="translate(-7,3)" font-family="sans-serif" font-size="10px" fill="#000" opacity="1">100,000</text></g><g class="mark-rule role-axis-domain" pointer-events="none"><line transform="translate(0,400)" x2="0" y2="-400" stroke="#888" stroke-width="1" opacity="1"/></g><g class="mark-text role-axis-title" pointer-events="none"><text text-anchor="middle" transform="translate(-47.1474609375,200) rotate(-90) translate(0,-2)" font-family="sans-serif" font-size="11px" font-weight="bold" fill="#000" opacity="1">MFlops</text></g></g><path class="foreground" aria-hidden="true" d="" pointer-events="none" display="none"/></g></g><g class="mark-symbol role-mark layer_0_layer_0_layer_0_marks" role="graphics-symbol" aria-roledescription="symbol mark container"><path transform="translate(15,368)" d="M2.7386127875258306,0A2.7386127875258306,2.7386127875258306,0,1,1,-2.7386127875258306,0A2.7386127875258306,2.7386127875258306,0,1,1,2.7386127875258306,0" stroke="#4c78a8" stroke-width="2" opacity="0.3"/><path transform="translate(45,283.63636)" d="M2.7386127875258306,0A2.7386127875258306,2.7386127875258306,0,1,1,-2.7386127875258306,0A2.7386127875258306,2.7386127875258306,0,1,1,2.7386127875258306,0" stroke="#4c78a8" stroke-width="2" opacity="0.3"/><path transform="translate(45,283.63636)" d="M2.7386127875258306,0A2.7386127875258306,2.7386127875258306,0,1,1,-2.7386127875258306,0A2.7386127875258306,2.7386127875258306,0,1,1,2.7386127875258306,0" stroke="#4c78a8" stroke-width="2" opacity="0.3"/><path transform="translate(75,280)" d="M2.7386127875258306,0A2.7386127875258306,2.7386127875258306,0,1,1,-2.7386127875258306,0A2.7386127875258306,2.7386127875258306,0,1,1,2.7386127875258306,0" stroke="#4c78a8" stroke-width="2" opacity="0.3"/><path transform="translate(75,280)" d="M2.7386127875258306,0A2.7386127875258306,2.7386127875258306,0,1,1,-2.7386127875258306,0A2.7386127875258306,2.7386127875258306,0,1,1,2.7386127875258306,0" stroke="#4c78a8" stroke-width="2" opacity="0.3"/><path transform="translate(105,251.5942)" d="M2.7386127875258306,0A2.7386127875258306,2.7386127875258306,0,1,1,-2.7386127875258306,0A2.7386127875258306,2.7386127875258306,0,1,1,2.7386127875258306,0" stroke="#4c78a8" stroke-width="2" opacity="0.3"/><path transform="translate(105,251.5942)" d="M2.7386127875258306,0A2.7386127875258306,2.7386127875258306,0,1,1,-2.7386127875258306,0A2.7386127875258306,2.7386127875258306,0,1,1,2.7386127875258306,0" stroke="#4c78a8" stroke-width="2" opacity="0.3"/><path transform="translate(195,299.85400000000004)" d="M2.7386127875258306,0A2.7386127875258306,2.7386127875258306,0,1,1,-2.7386127875258306,0A2.7386127875258306,2.7386127875258306,0,1,1,2.7386127875258306,0" stroke="#4c78a8" stroke-width="2" opacity="0.3"/><path transform="translate(225,278.45696000000004)" d="M2.7386127875258306,0A2.7386127875258306,2.7386127875258306,0,1,1,-2.7386127875258306,0A2.7386127875258306,2.7386127875258306,0,1,1,2.7386127875258306,0" stroke="#4c78a8" stroke-width="2" opacity="0.3"/><path transform="translate(255,240.87312)" d="M2.7386127875258306,0A2.7386127875258306,2.7386127875258306,0,1,1,-2.7386127875258306,0A2.7386127875258306,2.7386127875258306,0,1,1,2.7386127875258306,0" stroke="#4c78a8" stroke-width="2" opacity="0.3"/><path transform="translate(255,228.72248000000002)" d="M2.7386127875258306,0A2.7386127875258306,2.7386127875258306,0,1,1,-2.7386127875258306,0A2.7386127875258306,2.7386127875258306,0,1,1,2.7386127875258306,0" stroke="#4c78a8" stroke-width="2" opacity="0.3"/><path transform="translate(285,300.49752)" d="M2.7386127875258306,0A2.7386127875258306,2.7386127875258306,0,1,1,-2.7386127875258306,0A2.7386127875258306,2.7386127875258306,0,1,1,2.7386127875258306,0" stroke="#4c78a8" stroke-width="2" opacity="0.3"/><path transform="translate(315,227.70228)" d="M2.7386127875258306,0A2.7386127875258306,2.7386127875258306,0,1,1,-2.7386127875258306,0A2.7386127875258306,2.7386127875258306,0,1,1,2.7386127875258306,0" stroke="#4c78a8" stroke-width="2" opacity="0.3"/><path transform="translate(345,202.65524)" d="M2.7386127875258306,0A2.7386127875258306,2.7386127875258306,0,1,1,-2.7386127875258306,0A2.7386127875258306,2.7386127875258306,0,1,1,2.7386127875258306,0" stroke="#4c78a8" stroke-width="2" opacity="0.3"/><path transform="translate(405,272.26068)" d="M2.7386127875258306,0A2.7386127875258306,2.7386127875258306,0,1,1,-2.7386127875258306,0A2.7386127875258306,2.7386127875258306,0,1,1,2.7386127875258306,0" stroke="#4c78a8" stroke-width="2" opacity="0.3"/><path transform="translate(435,268.13188)" d="M2.7386127875258306,0A2.7386127875258306,2.7386127875258306,0,1,1,-2.7386127875258306,0A2.7386127875258306,2.7386127875258306,0,1,1,2.7386127875258306,0" stroke="#4c78a8" stroke-width="2" opacity="0.3"/><path transform="translate(465,360.1992)" d="M2.7386127875258306,0A2.7386127875258306,2.7386127875258306,0,1,1,-2.7386127875258306,0A2.7386127875258306,2.7386127875258306,0,1,1,2.7386127875258306,0" stroke="#4c78a8" stroke-width="2" opacity="0.3"/><path transform="translate(465,208.93296)" d="M2.7386127875258306,0A2.7386127875258306,2.7386127875258306,0,1,1,-2.7386127875258306,0A2.7386127875258306,2.7386127875258306,0,1,1,2.7386127875258306,0" stroke="#4c78a8" stroke-width="2" opacity="0.3"/><path transform="translate(495,185.22404)" d="M2.7386127875258306,0A2.7386127875258306,2.7386127875258306,0,1,1,-2.7386127875258306,0A2.7386127875258306,2.7386127875258306,0,1,1,2.7386127875258306,0" stroke="#4c78a8" stroke-width="2" opacity="0.3"/><path transform="translate(495,188.51764000000003)" d="M2.7386127875258306,0A2.7386127875258306,2.7386127875258306,0,1,1,-2.7386127875258306,0A2.7386127875258306,2.7386127875258306,0,1,1,2.7386127875258306,0" stroke="#4c78a8" stroke-width="2" opacity="0.3"/><path transform="translate(525,177.82855999999998)" d="M2.7386127875258306,0A2.7386127875258306,2.7386127875258306,0,1,1,-2.7386127875258306,0A2.7386127875258306,2.7386127875258306,0,1,1,2.7386127875258306,0" stroke="#4c78a8" stroke-width="2" opacity="0.3"/><path transform="translate(555,176.30656)" d="M2.7386127875258306,0A2.7386127875258306,2.7386127875258306,0,1,1,-2.7386127875258306,0A2.7386127875258306,2.7386127875258306,0,1,1,2.7386127875258306,0" stroke="#4c78a8" stroke-width="2" opacity="0.3"/><path transform="translate(555,125.98252000000004)" d="M2.7386127875258306,0A2.7386127875258306,2.7386127875258306,0,1,1,-2.7386127875258306,0A2.7386127875258306,2.7386127875258306,0,1,1,2.7386127875258306,0" stroke="#4c78a8" stroke-width="2" opacity="0.3"/><path transform="translate(585,197.43632)" d="M2.7386127875258306,0A2.7386127875258306,2.7386127875258306,0,1,1,-2.7386127875258306,0A2.7386127875258306,2.7386127875258306,0,1,1,2.7386127875258306,0" stroke="#4c78a8" stroke-width="2" opacity="0.3"/></g><g class="mark-rule role-mark layer_0_layer_0_layer_1_layer_0_marks" role="graphics-symbol" aria-roledescription="rule mark container"><line transform="translate(15,360)" x2="0" y2="0" stroke="black" opacity="0.3"/><line transform="translate(45,293.33331999999996)" x2="0" y2="0" stroke="black" opacity="0.3"/><line transform="translate(75,283.24324)" x2="0" y2="0" stroke="black" opacity="0.3"/><line transform="translate(105,249.41176000000002)" x2="0" y2="0" stroke="black" opacity="0.3"/><line transform="translate(135,257.14284000000004)" x2="0" y2="0" stroke="black" opacity="0.3"/><line transform="translate(165,246.4)" x2="0" y2="0" stroke="black" opacity="0.3"/><line transform="translate(195,262.45615999999995)" x2="0" y2="-5.745959999999911" stroke="black" opacity="0.3"/><line transform="translate(225,235.50199999999995)" x2="0" y2="0" stroke="black" opacity="0.3"/><line transform="translate(255,225.65023999999997)" x2="0" y2="0" stroke="black" opacity="0.3"/><line transform="translate(285,239.83984)" x2="0" y2="-18.01356000000004" stroke="black" opacity="0.3"/><line transform="translate(315,201.71323999999998)" x2="0" y2="-1.863599999999991" stroke="black" opacity="0.3"/><line transform="translate(345,186.83116)" x2="0" y2="-1.8233999999999924" stroke="black" opacity="0.3"/><line transform="translate(375,187.72948)" x2="0" y2="-8.95035999999999" stroke="black" opacity="0.3"/><line transform="translate(405,176.45620000000002)" x2="0" y2="-12.245680000000021" stroke="black" opacity="0.3"/><line transform="translate(435,162.94996)" x2="0" y2="-1.7823199999999702" stroke="black" opacity="0.3"/><line transform="translate(465,114.81287999999998)" x2="0" y2="0" stroke="black" opacity="0.3"/><line transform="translate(495,143.27892000000003)" x2="0" y2="0" stroke="black" opacity="0.3"/><line transform="translate(525,145.0492)" x2="0" y2="-1.0492000000000132" stroke="black" opacity="0.3"/><line transform="translate(555,98.83644000000001)" x2="0" y2="0" stroke="black" opacity="0.3"/><line transform="translate(585,128.871)" x2="0" y2="-7.192359999999994" stroke="black" opacity="0.3"/></g><g class="mark-rule role-mark layer_0_layer_0_layer_1_layer_1_marks" role="graphics-symbol" aria-roledescription="rule mark container"><line transform="translate(15,360)" x2="0" y2="0" stroke="black" opacity="0.3"/><line transform="translate(45,293.33331999999996)" x2="0" y2="0" stroke="black" opacity="0.3"/><line transform="translate(75,283.24324)" x2="0" y2="0" stroke="black" opacity="0.3"/><line transform="translate(105,249.41176000000002)" x2="0" y2="0" stroke="black" opacity="0.3"/><line transform="translate(135,257.14284000000004)" x2="0" y2="0" stroke="black" opacity="0.3"/><line transform="translate(165,245.71427999999997)" x2="0" y2="0" stroke="black" opacity="0.3"/><line transform="translate(195,251.27372000000003)" x2="0" y2="-4.5697999999999865" stroke="black" opacity="0.3"/><line transform="translate(225,230.04148000000004)" x2="0" y2="-0.7081600000000208" stroke="black" opacity="0.3"/><line transform="translate(255,224.07240000000002)" x2="0" y2="-1.8772800000000132" stroke="black" opacity="0.3"/><line transform="translate(285,198.48868)" x2="0" y2="-3.6168799999999806" stroke="black" opacity="0.3"/><line transform="translate(315,191.82796)" x2="0" y2="-1.2281600000000026" stroke="black" opacity="0.3"/><line transform="translate(345,178.9928)" x2="0" y2="-3.2263599999999997" stroke="black" opacity="0.3"/><line transform="translate(375,149.09352)" x2="0" y2="-24.36367999999996" stroke="black" opacity="0.3"/><line transform="translate(405,148.83295999999996)" x2="0" y2="-9.700439999999986" stroke="black" opacity="0.3"/><line transform="translate(435,155.21304000000003)" x2="0" y2="-8.734160000000031" stroke="black" opacity="0.3"/><line transform="translate(465,88.36900000000001)" x2="0" y2="-9.939159999999973" stroke="black" opacity="0.3"/><line transform="translate(495,128.46975999999998)" x2="0" y2="-6.826720000000009" stroke="black" opacity="0.3"/><line transform="translate(525,136.03396)" x2="0" y2="-1.7287200000000098" stroke="black" opacity="0.3"/><line transform="translate(555,80.79115999999998)" x2="0" y2="-13.248000000000019" stroke="black" opacity="0.3"/><line transform="translate(585,96.32263999999999)" x2="0" y2="-22.686720000000008" stroke="black" opacity="0.3"/></g><g class="mark-rect role-mark layer_0_layer_1_layer_0_marks" role="graphics-symbol" aria-roledescription="rect mark container"><path d="M8,360h14v0h-14Z" fill="#e45756" opacity="0.3"/><path d="M38,293.33331999999996h14v0h-14Z" fill="#e45756" opacity="0.3"/><path d="M68,283.24324h14v0h-14Z" fill="#e45756" opacity="0.3"/><path d="M98,249.41176000000002h14v0h-14Z" fill="#e45756" opacity="0.3"/><path d="M128,257.14284000000004h14v0h-14Z" fill="#e45756" opacity="0.3"/><path d="M158,245.71427999999997h14v0.6857200000000319h-14Z" fill="#e45756" opacity="0.3"/><path d="M188,251.27372000000003h14v5.436480000000017h-14Z" fill="#e45756" opacity="0.3"/><path d="M218,230.04148000000004h14v5.460519999999917h-14Z" fill="#e45756" opacity="0.3"/><path d="M248,224.07240000000002h14v1.5778399999999522h-14Z" fill="#e45756" opacity="0.3"/><path d="M278,198.48868h14v23.33759999999998h-14Z" fill="#e45756" opacity="0.3"/><path d="M308,191.82796h14v8.021680000000003h-14Z" fill="#e45756" opacity="0.3"/><path d="M338,178.9928h14v6.0149600000000305h-14Z" fill="#e45756" opacity="0.3"/><path d="M368,149.09352h14v29.685599999999994h-14Z" fill="#e45756" opacity="0.3"/><path d="M398,148.83295999999996h14v15.377560000000045h-14Z" fill="#e45756" opacity="0.3"/><path d="M428,155.21304000000003h14v5.954599999999999h-14Z" fill="#e45756" opacity="0.3"/><path d="M458,88.36900000000001h14v26.443879999999965h-14Z" fill="#e45756" opacity="0.3"/><path d="M488,128.46975999999998h14v14.809160000000048h-14Z" fill="#e45756" opacity="0.3"/><path d="M518,136.03396h14v7.9660399999999925h-14Z" fill="#e45756" opacity="0.3"/><path d="M548,80.79115999999998h14v18.045280000000034h-14Z" fill="#e45756" opacity="0.3"/><path d="M578,96.32263999999999h14v25.356000000000023h-14Z" fill="#e45756" opacity="0.3"/></g><g class="mark-rect role-mark layer_0_layer_1_layer_1_marks" role="graphics-symbol" aria-roledescription="rect mark container"><path d="M8,359.5h14v1h-14Z" fill="white" opacity="0.3"/><path d="M38,292.83331999999996h14v1h-14Z" fill="white" opacity="0.3"/><path d="M68,282.74324h14v1h-14Z" fill="white" opacity="0.3"/><path d="M98,248.91176000000002h14v1h-14Z" fill="white" opacity="0.3"/><path d="M128,256.64284000000004h14v1h-14Z" fill="white" opacity="0.3"/><path d="M158,245.21427999999997h14v1h-14Z" fill="white" opacity="0.3"/><path d="M188,255.458h14v1h-14Z" fill="white" opacity="0.3"/><path d="M218,230.94032h14v1h-14Z" fill="white" opacity="0.3"/><path d="M248,224.88923999999997h14v1h-14Z" fill="white" opacity="0.3"/><path d="M278,199.74967999999998h14v1h-14Z" fill="white" opacity="0.3"/><path d="M308,195.31976h14v1h-14Z" fill="white" opacity="0.3"/><path d="M338,181.28376000000003h14v1h-14Z" fill="white" opacity="0.3"/><path d="M368,160.20796h14v1h-14Z" fill="white" opacity="0.3"/><path d="M398,155.45332000000002h14v1h-14Z" fill="white" opacity="0.3"/><path d="M428,158.85828h14v1h-14Z" fill="white" opacity="0.3"/><path d="M458,91.67471999999995h14v1h-14Z" fill="white" opacity="0.3"/><path d="M488,129.3694h14v1h-14Z" fill="white" opacity="0.3"/><path d="M518,138.56039999999996h14v1h-14Z" fill="white" opacity="0.3"/><path d="M548,90.36196000000002h14v1h-14Z" fill="white" opacity="0.3"/><path d="M578,105.44991999999999h14v1h-14Z" fill="white" opacity="0.3"/></g><g class="mark-symbol role-mark layer_1_layer_0_layer_0_marks" role="graphics-symbol" aria-roledescription="symbol mark container"><path transform="translate(135,256.11512)" d="M2.7386127875258306,0A2.7386127875258306,2.7386127875258306,0,1,1,-2.7386127875258306,0A2.7386127875258306,2.7386127875258306,0,1,1,2.7386127875258306,0" stroke="#4c78a8" stroke-width="2" opacity="0.3"/><path transform="translate(255,311.70324000000005)" d="M2.7386127875258306,0A2.7386127875258306,2.7386127875258306,0,1,1,-2.7386127875258306,0A2.7386127875258306,2.7386127875258306,0,1,1,2.7386127875258306,0" stroke="#4c78a8" stroke-width="2" opacity="0.3"/><path transform="translate(255,389.23788)" d="M2.7386127875258306,0A2.7386127875258306,2.7386127875258306,0,1,1,-2.7386127875258306,0A2.7386127875258306,2.7386127875258306,0,1,1,2.7386127875258306,0" stroke="#4c78a8" stroke-width="2" opacity="0.3"/><path transform="translate(285,206.52964000000003)" d="M2.7386127875258306,0A2.7386127875258306,2.7386127875258306,0,1,1,-2.7386127875258306,0A2.7386127875258306,2.7386127875258306,0,1,1,2.7386127875258306,0" stroke="#4c78a8" stroke-width="2" opacity="0.3"/><path transform="translate(285,168.11596)" d="M2.7386127875258306,0A2.7386127875258306,2.7386127875258306,0,1,1,-2.7386127875258306,0A2.7386127875258306,2.7386127875258306,0,1,1,2.7386127875258306,0" stroke="#4c78a8" stroke-width="2" opacity="0.3"/><path transform="translate(285,205.3528)" d="M2.7386127875258306,0A2.7386127875258306,2.7386127875258306,0,1,1,-2.7386127875258306,0A2.7386127875258306,2.7386127875258306,0,1,1,2.7386127875258306,0" stroke="#4c78a8" stroke-width="2" opacity="0.3"/><path transform="translate(315,229.22212000000002)" d="M2.7386127875258306,0A2.7386127875258306,2.7386127875258306,0,1,1,-2.7386127875258306,0A2.7386127875258306,2.7386127875258306,0,1,1,2.7386127875258306,0" stroke="#4c78a8" stroke-width="2" opacity="0.3"/><path transform="translate(345,217.62532000000002)" d="M2.7386127875258306,0A2.7386127875258306,2.7386127875258306,0,1,1,-2.7386127875258306,0A2.7386127875258306,2.7386127875258306,0,1,1,2.7386127875258306,0" stroke="#4c78a8" stroke-width="2" opacity="0.3"/><path transform="translate(375,243.56032000000002)" d="M2.7386127875258306,0A2.7386127875258306,2.7386127875258306,0,1,1,-2.7386127875258306,0A2.7386127875258306,2.7386127875258306,0,1,1,2.7386127875258306,0" stroke="#4c78a8" stroke-width="2" opacity="0.3"/><path transform="translate(405,196.83479999999997)" d="M2.7386127875258306,0A2.7386127875258306,2.7386127875258306,0,1,1,-2.7386127875258306,0A2.7386127875258306,2.7386127875258306,0,1,1,2.7386127875258306,0" stroke="#4c78a8" stroke-width="2" opacity="0.3"/><path transform="translate(405,210.59536)" d="M2.7386127875258306,0A2.7386127875258306,2.7386127875258306,0,1,1,-2.7386127875258306,0A2.7386127875258306,2.7386127875258306,0,1,1,2.7386127875258306,0" stroke="#4c78a8" stroke-width="2" opacity="0.3"/><path transform="translate(435,245.71427999999997)" d="M2.7386127875258306,0A2.7386127875258306,2.7386127875258306,0,1,1,-2.7386127875258306,0A2.7386127875258306,2.7386127875258306,0,1,1,2.7386127875258306,0" stroke="#4c78a8" stroke-width="2" opacity="0.3"/><path transform="translate(465,104.52659999999997)" d="M2.7386127875258306,0A2.7386127875258306,2.7386127875258306,0,1,1,-2.7386127875258306,0A2.7386127875258306,2.7386127875258306,0,1,1,2.7386127875258306,0" stroke="#4c78a8" stroke-width="2" opacity="0.3"/><path transform="translate(495,176.55488)" d="M2.7386127875258306,0A2.7386127875258306,2.7386127875258306,0,1,1,-2.7386127875258306,0A2.7386127875258306,2.7386127875258306,0,1,1,2.7386127875258306,0" stroke="#4c78a8" stroke-width="2" opacity="0.3"/><path transform="translate(495,162.58532)" d="M2.7386127875258306,0A2.7386127875258306,2.7386127875258306,0,1,1,-2.7386127875258306,0A2.7386127875258306,2.7386127875258306,0,1,1,2.7386127875258306,0" stroke="#4c78a8" stroke-width="2" opacity="0.3"/><path transform="translate(525,227.64683999999997)" d="M2.7386127875258306,0A2.7386127875258306,2.7386127875258306,0,1,1,-2.7386127875258306,0A2.7386127875258306,2.7386127875258306,0,1,1,2.7386127875258306,0" stroke="#4c78a8" stroke-width="2" opacity="0.3"/><path transform="translate(555,147.07535999999996)" d="M2.7386127875258306,0A2.7386127875258306,2.7386127875258306,0,1,1,-2.7386127875258306,0A2.7386127875258306,2.7386127875258306,0,1,1,2.7386127875258306,0" stroke="#4c78a8" stroke-width="2" opacity="0.3"/><path transform="translate(585,168.99475999999999)" d="M2.7386127875258306,0A2.7386127875258306,2.7386127875258306,0,1,1,-2.7386127875258306,0A2.7386127875258306,2.7386127875258306,0,1,1,2.7386127875258306,0" stroke="#4c78a8" stroke-width="2" opacity="0.3"/></g><g class="mark-rule role-mark layer_1_layer_0_layer_1_layer_0_marks" role="graphics-symbol" aria-roledescription="rule mark container"><line transform="translate(15,360)" x2="0" y2="0" stroke="black" opacity="0.3"/><line transform="translate(45,293.33331999999996)" x2="0" y2="0" stroke="black" opacity="0.3"/><line transform="translate(75,283.24324)" x2="0" y2="0" stroke="black" opacity="0.3"/><line transform="translate(105,251.5942)" x2="0" y2="0" stroke="black" opacity="0.3"/><line transform="translate(135,257.14284000000004)" x2="0" y2="0" stroke="black" opacity="0.3"/><line transform="translate(165,247.07964)" x2="0" y2="-0.6796400000000062" stroke="black" opacity="0.3"/><line transform="translate(195,259.64196)" x2="0" y2="-5.599400000000003" stroke="black" opacity="0.3"/><line transform="translate(225,244.84848000000002)" x2="0" y2="-9.016800000000046" stroke="black" opacity="0.3"/><line transform="translate(255,226.16988)" x2="0" y2="0" stroke="black" opacity="0.3"/><line transform="translate(285,199.24716)" x2="0" y2="0" stroke="black" opacity="0.3"/><line transform="translate(315,214.8174)" x2="0" y2="-9.123959999999954" stroke="black" opacity="0.3"/><line transform="translate(345,198.63072000000003)" x2="0" y2="-10.980960000000039" stroke="black" opacity="0.3"/><line transform="translate(375,197.161)" x2="0" y2="-6.523719999999969" stroke="black" opacity="0.3"/><line transform="translate(405,163.70292)" x2="0" y2="0" stroke="black" opacity="0.3"/><line transform="translate(435,170.8952)" x2="0" y2="-4.863999999999976" stroke="black" opacity="0.3"/><line transform="translate(465,92.60788)" x2="0" y2="-2.1780399999999815" stroke="black" opacity="0.3"/><line transform="translate(495,136.39168)" x2="0" y2="0" stroke="black" opacity="0.3"/><line transform="translate(525,209.95520000000002)" x2="0" y2="-40.811200000000014" stroke="black" opacity="0.3"/><line transform="translate(555,94.39152000000001)" x2="0" y2="-1.3677600000000325" stroke="black" opacity="0.3"/><line transform="translate(585,124.7312)" x2="0" y2="-15.83875999999998" stroke="black" opacity="0.3"/></g><g class="mark-rule role-mark layer_1_layer_0_layer_1_layer_1_marks" role="graphics-symbol" aria-roledescription="rule mark container"><line transform="translate(15,360)" x2="0" y2="0" stroke="black" opacity="0.3"/><line transform="translate(45,293.33331999999996)" x2="0" y2="0" stroke="black" opacity="0.3"/><line transform="translate(75,283.24324)" x2="0" y2="0" stroke="black" opacity="0.3"/><line transform="translate(105,249.41176000000002)" x2="0" y2="0" stroke="black" opacity="0.3"/><line transform="translate(135,257.14284000000004)" x2="0" y2="0" stroke="black" opacity="0.3"/><line transform="translate(165,245.71427999999997)" x2="0" y2="0" stroke="black" opacity="0.3"/><line transform="translate(195,248.39779999999996)" x2="0" y2="-3.8652399999999716" stroke="black" opacity="0.3"/><line transform="translate(225,228.61924)" x2="0" y2="-4.413240000000002" stroke="black" opacity="0.3"/><line transform="translate(255,221.92368)" x2="0" y2="-4.744999999999976" stroke="black" opacity="0.3"/><line transform="translate(285,195.65771999999998)" x2="0" y2="-5.35627999999997" stroke="black" opacity="0.3"/><line transform="translate(315,196.79388000000003)" x2="0" y2="-11.471280000000007" stroke="black" opacity="0.3"/><line transform="translate(345,178.46151999999998)" x2="0" y2="-2.331959999999981" stroke="black" opacity="0.3"/><line transform="translate(375,159.06784)" x2="0" y2="-24.566319999999962" stroke="black" opacity="0.3"/><line transform="translate(405,151.53368)" x2="0" y2="-6.938000000000017" stroke="black" opacity="0.3"/><line transform="translate(435,156.75676000000004)" x2="0" y2="-6.294640000000044" stroke="black" opacity="0.3"/><line transform="translate(465,84.01155999999999)" x2="0" y2="-4.324359999999984" stroke="black" opacity="0.3"/><line transform="translate(495,125.14684000000003)" x2="0" y2="-9.546280000000039" stroke="black" opacity="0.3"/><line transform="translate(525,135.95924)" x2="0" y2="-2.641159999999985" stroke="black" opacity="0.3"/><line transform="translate(555,78.64128000000004)" x2="0" y2="-19.249600000000022" stroke="black" opacity="0.3"/><line transform="translate(585,87.19452000000003)" x2="0" y2="-17.517119999999977" stroke="black" opacity="0.3"/></g><g class="mark-rect role-mark layer_1_layer_1_layer_0_marks" role="graphics-symbol" aria-roledescription="rect mark container"><path d="M8,360h14v0h-14Z" fill="#4c78a8" opacity="0.3"/><path d="M38,293.33331999999996h14v0h-14Z" fill="#4c78a8" opacity="0.3"/><path d="M68,283.24324h14v0h-14Z" fill="#4c78a8" opacity="0.3"/><path d="M98,249.41176000000002h14v2.1824399999999855h-14Z" fill="#4c78a8" opacity="0.3"/><path d="M128,257.14284000000004h14v0h-14Z" fill="#4c78a8" opacity="0.3"/><path d="M158,245.71427999999997h14v0.6857200000000319h-14Z" fill="#4c78a8" opacity="0.3"/><path d="M188,248.39779999999996h14v5.644760000000019h-14Z" fill="#4c78a8" opacity="0.3"/><path d="M218,228.61924h14v7.212439999999987h-14Z" fill="#4c78a8" opacity="0.3"/><path d="M248,221.92368h14v4.246200000000016h-14Z" fill="#4c78a8" opacity="0.3"/><path d="M278,195.65771999999998h14v3.5894400000000246h-14Z" fill="#4c78a8" opacity="0.3"/><path d="M308,196.79388000000003h14v8.899560000000008h-14Z" fill="#4c78a8" opacity="0.3"/><path d="M338,178.46151999999998h14v9.188240000000008h-14Z" fill="#4c78a8" opacity="0.3"/><path d="M368,159.06784h14v31.569440000000043h-14Z" fill="#4c78a8" opacity="0.3"/><path d="M398,151.53368h14v12.169240000000002h-14Z" fill="#4c78a8" opacity="0.3"/><path d="M428,156.75676000000004h14v9.27443999999997h-14Z" fill="#4c78a8" opacity="0.3"/><path d="M458,84.01155999999999h14v6.418280000000024h-14Z" fill="#4c78a8" opacity="0.3"/><path d="M488,125.14684000000003h14v11.244839999999982h-14Z" fill="#4c78a8" opacity="0.3"/><path d="M518,135.95924h14v33.18476000000001h-14Z" fill="#4c78a8" opacity="0.3"/><path d="M548,78.64128000000004h14v14.382479999999944h-14Z" fill="#4c78a8" opacity="0.3"/><path d="M578,87.19452000000003h14v21.697919999999996h-14Z" fill="#4c78a8" opacity="0.3"/></g><g class="mark-rect role-mark layer_1_layer_1_layer_1_marks" role="graphics-symbol" aria-roledescription="rect mark container"><path d="M8,359.5h14v1h-14Z" fill="white" opacity="0.3"/><path d="M38,292.83331999999996h14v1h-14Z" fill="white" opacity="0.3"/><path d="M68,282.74324h14v1h-14Z" fill="white" opacity="0.3"/><path d="M98,248.91176000000002h14v1h-14Z" fill="white" opacity="0.3"/><path d="M128,256.64284000000004h14v1h-14Z" fill="white" opacity="0.3"/><path d="M158,245.21427999999997h14v1h-14Z" fill="white" opacity="0.3"/><path d="M188,252.76203999999998h14v1h-14Z" fill="white" opacity="0.3"/><path d="M218,231.28644h14v1h-14Z" fill="white" opacity="0.3"/><path d="M248,223.83736h14v1h-14Z" fill="white" opacity="0.3"/><path d="M278,196.71167999999997h14v1h-14Z" fill="white" opacity="0.3"/><path d="M308,198.21455999999998h14v1h-14Z" fill="white" opacity="0.3"/><path d="M338,180.41916h14v1h-14Z" fill="white" opacity="0.3"/><path d="M368,166.85935999999998h14v1h-14Z" fill="white" opacity="0.3"/><path d="M398,155.72432h14v1h-14Z" fill="white" opacity="0.3"/><path d="M428,158.21312h14v1h-14Z" fill="white" opacity="0.3"/><path d="M458,88.60815999999997h14v1h-14Z" fill="white" opacity="0.3"/><path d="M488,132.48912h14v1h-14Z" fill="white" opacity="0.3"/><path d="M518,145.38235999999998h14v1h-14Z" fill="white" opacity="0.3"/><path d="M548,89.0502h14v1h-14Z" fill="white" opacity="0.3"/><path d="M578,90.84311999999997h14v1h-14Z" fill="white" opacity="0.3"/></g><g class="mark-symbol role-mark layer_2_layer_0_layer_0_marks" role="graphics-symbol" aria-roledescription="symbol mark container"><path transform="translate(15,368)" d="M2.7386127875258306,0A2.7386127875258306,2.7386127875258306,0,1,1,-2.7386127875258306,0A2.7386127875258306,2.7386127875258306,0,1,1,2.7386127875258306,0" stroke="#4c78a8" stroke-width="2" opacity="0.3"/><path transform="translate(15,368)" d="M2.7386127875258306,0A2.7386127875258306,2.7386127875258306,0,1,1,-2.7386127875258306,0A2.7386127875258306,2.7386127875258306,0,1,1,2.7386127875258306,0" stroke="#4c78a8" stroke-width="2" opacity="0.3"/><path transform="translate(105,253.71427999999997)" d="M2.7386127875258306,0A2.7386127875258306,2.7386127875258306,0,1,1,-2.7386127875258306,0A2.7386127875258306,2.7386127875258306,0,1,1,2.7386127875258306,0" stroke="#4c78a8" stroke-width="2" opacity="0.3"/><path transform="translate(105,253.71427999999997)" d="M2.7386127875258306,0A2.7386127875258306,2.7386127875258306,0,1,1,-2.7386127875258306,0A2.7386127875258306,2.7386127875258306,0,1,1,2.7386127875258306,0" stroke="#4c78a8" stroke-width="2" opacity="0.3"/><path transform="translate(165,357.43844)" d="M2.7386127875258306,0A2.7386127875258306,2.7386127875258306,0,1,1,-2.7386127875258306,0A2.7386127875258306,2.7386127875258306,0,1,1,2.7386127875258306,0" stroke="#4c78a8" stroke-width="2" opacity="0.3"/><path transform="translate(195,278.58408)" d="M2.7386127875258306,0A2.7386127875258306,2.7386127875258306,0,1,1,-2.7386127875258306,0A2.7386127875258306,2.7386127875258306,0,1,1,2.7386127875258306,0" stroke="#4c78a8" stroke-width="2" opacity="0.3"/><path transform="translate(225,227.17299999999997)" d="M2.7386127875258306,0A2.7386127875258306,2.7386127875258306,0,1,1,-2.7386127875258306,0A2.7386127875258306,2.7386127875258306,0,1,1,2.7386127875258306,0" stroke="#4c78a8" stroke-width="2" opacity="0.3"/><path transform="translate(255,257.05884000000003)" d="M2.7386127875258306,0A2.7386127875258306,2.7386127875258306,0,1,1,-2.7386127875258306,0A2.7386127875258306,2.7386127875258306,0,1,1,2.7386127875258306,0" stroke="#4c78a8" stroke-width="2" opacity="0.3"/><path transform="translate(255,248.91192)" d="M2.7386127875258306,0A2.7386127875258306,2.7386127875258306,0,1,1,-2.7386127875258306,0A2.7386127875258306,2.7386127875258306,0,1,1,2.7386127875258306,0" stroke="#4c78a8" stroke-width="2" opacity="0.3"/><path transform="translate(285,154.22428)" d="M2.7386127875258306,0A2.7386127875258306,2.7386127875258306,0,1,1,-2.7386127875258306,0A2.7386127875258306,2.7386127875258306,0,1,1,2.7386127875258306,0" stroke="#4c78a8" stroke-width="2" opacity="0.3"/><path transform="translate(285,297.17224)" d="M2.7386127875258306,0A2.7386127875258306,2.7386127875258306,0,1,1,-2.7386127875258306,0A2.7386127875258306,2.7386127875258306,0,1,1,2.7386127875258306,0" stroke="#4c78a8" stroke-width="2" opacity="0.3"/><path transform="translate(315,338.66360000000003)" d="M2.7386127875258306,0A2.7386127875258306,2.7386127875258306,0,1,1,-2.7386127875258306,0A2.7386127875258306,2.7386127875258306,0,1,1,2.7386127875258306,0" stroke="#4c78a8" stroke-width="2" opacity="0.3"/><path transform="translate(375,226.75207999999998)" d="M2.7386127875258306,0A2.7386127875258306,2.7386127875258306,0,1,1,-2.7386127875258306,0A2.7386127875258306,2.7386127875258306,0,1,1,2.7386127875258306,0" stroke="#4c78a8" stroke-width="2" opacity="0.3"/><path transform="translate(375,234.81204)" d="M2.7386127875258306,0A2.7386127875258306,2.7386127875258306,0,1,1,-2.7386127875258306,0A2.7386127875258306,2.7386127875258306,0,1,1,2.7386127875258306,0" stroke="#4c78a8" stroke-width="2" opacity="0.3"/><path transform="translate(435,260.39295999999996)" d="M2.7386127875258306,0A2.7386127875258306,2.7386127875258306,0,1,1,-2.7386127875258306,0A2.7386127875258306,2.7386127875258306,0,1,1,2.7386127875258306,0" stroke="#4c78a8" stroke-width="2" opacity="0.3"/><path transform="translate(435,274.91312)" d="M2.7386127875258306,0A2.7386127875258306,2.7386127875258306,0,1,1,-2.7386127875258306,0A2.7386127875258306,2.7386127875258306,0,1,1,2.7386127875258306,0" stroke="#4c78a8" stroke-width="2" opacity="0.3"/><path transform="translate(465,179.11696)" d="M2.7386127875258306,0A2.7386127875258306,2.7386127875258306,0,1,1,-2.7386127875258306,0A2.7386127875258306,2.7386127875258306,0,1,1,2.7386127875258306,0" stroke="#4c78a8" stroke-width="2" opacity="0.3"/><path transform="translate(495,181.70508)" d="M2.7386127875258306,0A2.7386127875258306,2.7386127875258306,0,1,1,-2.7386127875258306,0A2.7386127875258306,2.7386127875258306,0,1,1,2.7386127875258306,0" stroke="#4c78a8" stroke-width="2" opacity="0.3"/><path transform="translate(495,195.50467999999998)" d="M2.7386127875258306,0A2.7386127875258306,2.7386127875258306,0,1,1,-2.7386127875258306,0A2.7386127875258306,2.7386127875258306,0,1,1,2.7386127875258306,0" stroke="#4c78a8" stroke-width="2" opacity="0.3"/><path transform="translate(525,169.71371999999997)" d="M2.7386127875258306,0A2.7386127875258306,2.7386127875258306,0,1,1,-2.7386127875258306,0A2.7386127875258306,2.7386127875258306,0,1,1,2.7386127875258306,0" stroke="#4c78a8" stroke-width="2" opacity="0.3"/><path transform="translate(585,338.24183999999997)" d="M2.7386127875258306,0A2.7386127875258306,2.7386127875258306,0,1,1,-2.7386127875258306,0A2.7386127875258306,2.7386127875258306,0,1,1,2.7386127875258306,0" stroke="#4c78a8" stroke-width="2" opacity="0.3"/></g><g class="mark-rule role-mark layer_2_layer_0_layer_1_layer_0_marks" role="graphics-symbol" aria-roledescription="rule mark container"><line transform="translate(15,360)" x2="0" y2="0" stroke="black" opacity="0.3"/><line transform="translate(45,308.57144)" x2="0" y2="0" stroke="black" opacity="0.3"/><line transform="translate(75,289.23076)" x2="0" y2="0" stroke="black" opacity="0.3"/><line transform="translate(105,255.77464)" x2="0" y2="0" stroke="black" opacity="0.3"/><line transform="translate(135,263.94556)" x2="0" y2="0" stroke="black" opacity="0.3"/><line transform="translate(165,252.30768)" x2="0" y2="-0.6338799999999765" stroke="black" opacity="0.3"/><line transform="translate(195,263.82132)" x2="0" y2="-0.6791599999999676" stroke="black" opacity="0.3"/><line transform="translate(225,239.37255999999996)" x2="0" y2="-1.2697999999999183" stroke="black" opacity="0.3"/><line transform="translate(255,226.42856)" x2="0" y2="0" stroke="black" opacity="0.3"/><line transform="translate(285,218.59412000000003)" x2="0" y2="-5.074320000000029" stroke="black" opacity="0.3"/><line transform="translate(315,200.97196)" x2="0" y2="-2.0673199999999667" stroke="black" opacity="0.3"/><line transform="translate(345,317.6898)" x2="0" y2="-26.411800000000028" stroke="black" opacity="0.3"/><line transform="translate(375,172.91988000000003)" x2="0" y2="0" stroke="black" opacity="0.3"/><line transform="translate(405,218.20288000000002)" x2="0" y2="-28.47108000000003" stroke="black" opacity="0.3"/><line transform="translate(435,190.45399999999998)" x2="0" y2="0" stroke="black" opacity="0.3"/><line transform="translate(465,171.73112)" x2="0" y2="-47.67215999999998" stroke="black" opacity="0.3"/><line transform="translate(495,148.61528)" x2="0" y2="0" stroke="black" opacity="0.3"/><line transform="translate(525,164.6014)" x2="0" y2="-14.032040000000023" stroke="black" opacity="0.3"/><line transform="translate(555,164.39672000000002)" x2="0" y2="-24.700320000000005" stroke="black" opacity="0.3"/><line transform="translate(585,137.38203999999996)" x2="0" y2="-15.703399999999945" stroke="black" opacity="0.3"/></g><g class="mark-rule role-mark layer_2_layer_0_layer_1_layer_1_marks" role="graphics-symbol" aria-roledescription="rule mark container"><line transform="translate(15,360)" x2="0" y2="0" stroke="black" opacity="0.3"/><line transform="translate(45,308.57144)" x2="0" y2="0" stroke="black" opacity="0.3"/><line transform="translate(75,286.3158)" x2="0" y2="0" stroke="black" opacity="0.3"/><line transform="translate(105,255.77464)" x2="0" y2="0" stroke="black" opacity="0.3"/><line transform="translate(135,263.94556)" x2="0" y2="0" stroke="black" opacity="0.3"/><line transform="translate(165,251.03448000000003)" x2="0" y2="0" stroke="black" opacity="0.3"/><line transform="translate(195,254.8148)" x2="0" y2="-4.760159999999985" stroke="black" opacity="0.3"/><line transform="translate(225,234.83872000000002)" x2="0" y2="-3.745920000000069" stroke="black" opacity="0.3"/><line transform="translate(255,220.00000000000003)" x2="0" y2="-1.1180000000000518" stroke="black" opacity="0.3"/><line transform="translate(285,200.7472)" x2="0" y2="-4.828840000000014" stroke="black" opacity="0.3"/><line transform="translate(315,191.62428)" x2="0" y2="-0.6134800000000382" stroke="black" opacity="0.3"/><line transform="translate(345,186.50192000000004)" x2="0" y2="-3.3489600000000337" stroke="black" opacity="0.3"/><line transform="translate(375,163.44548000000003)" x2="0" y2="-13.459720000000033" stroke="black" opacity="0.3"/><line transform="translate(405,162.68107999999998)" x2="0" y2="-10.166999999999973" stroke="black" opacity="0.3"/><line transform="translate(435,157.84751999999997)" x2="0" y2="-2.6344799999999395" stroke="black" opacity="0.3"/><line transform="translate(465,92.03008000000001)" x2="0" y2="-11.561999999999983" stroke="black" opacity="0.3"/><line transform="translate(495,140.31051999999997)" x2="0" y2="-4.272919999999999" stroke="black" opacity="0.3"/><line transform="translate(525,139.27912)" x2="0" y2="-5.808679999999981" stroke="black" opacity="0.3"/><line transform="translate(555,82.72912)" x2="0" y2="-42.89976000000003" stroke="black" opacity="0.3"/><line transform="translate(585,83.24671999999995)" x2="0" y2="-5.7460799999999495" stroke="black" opacity="0.3"/></g><g class="mark-rect role-mark layer_2_layer_1_layer_0_marks" role="graphics-symbol" aria-roledescription="rect mark container"><path d="M8,360h14v0h-14Z" fill="#f58518" opacity="0.3"/><path d="M38,308.57144h14v0h-14Z" fill="#f58518" opacity="0.3"/><path d="M68,286.3158h14v2.914959999999951h-14Z" fill="#f58518" opacity="0.3"/><path d="M98,255.77464h14v0h-14Z" fill="#f58518" opacity="0.3"/><path d="M128,263.94556h14v0h-14Z" fill="#f58518" opacity="0.3"/><path d="M158,251.03448000000003h14v0.6393199999999979h-14Z" fill="#f58518" opacity="0.3"/><path d="M188,254.8148h14v8.327360000000056h-14Z" fill="#f58518" opacity="0.3"/><path d="M218,234.83872000000002h14v3.2640400000000227h-14Z" fill="#f58518" opacity="0.3"/><path d="M248,220.00000000000003h14v6.428559999999976h-14Z" fill="#f58518" opacity="0.3"/><path d="M278,200.7472h14v12.772600000000011h-14Z" fill="#f58518" opacity="0.3"/><path d="M308,191.62428h14v7.28036000000003h-14Z" fill="#f58518" opacity="0.3"/><path d="M338,186.50192000000004h14v104.77607999999992h-14Z" fill="#f58518" opacity="0.3"/><path d="M368,163.44548000000003h14v9.474400000000003h-14Z" fill="#f58518" opacity="0.3"/><path d="M398,162.68107999999998h14v27.050720000000013h-14Z" fill="#f58518" opacity="0.3"/><path d="M428,157.84751999999997h14v32.606480000000005h-14Z" fill="#f58518" opacity="0.3"/><path d="M458,92.03008000000001h14v32.028880000000015h-14Z" fill="#f58518" opacity="0.3"/><path d="M488,140.31051999999997h14v8.304760000000044h-14Z" fill="#f58518" opacity="0.3"/><path d="M518,139.27912h14v11.290239999999983h-14Z" fill="#f58518" opacity="0.3"/><path d="M548,82.72912h14v56.96728000000002h-14Z" fill="#f58518" opacity="0.3"/><path d="M578,83.24671999999995h14v38.43192000000006h-14Z" fill="#f58518" opacity="0.3"/></g><g class="mark-rect role-mark layer_2_layer_1_layer_1_marks" role="graphics-symbol" aria-roledescription="rect mark container"><path d="M8,359.5h14v1h-14Z" fill="white" opacity="0.3"/><path d="M38,308.07144h14v1h-14Z" fill="white" opacity="0.3"/><path d="M68,285.8158h14v1h-14Z" fill="white" opacity="0.3"/><path d="M98,255.27464h14v1h-14Z" fill="white" opacity="0.3"/><path d="M128,263.44556h14v1h-14Z" fill="white" opacity="0.3"/><path d="M158,250.53448000000003h14v1h-14Z" fill="white" opacity="0.3"/><path d="M188,255.83508h14v1h-14Z" fill="white" opacity="0.3"/><path d="M218,235.66000000000003h14v1h-14Z" fill="white" opacity="0.3"/><path d="M248,223.30664000000002h14v1h-14Z" fill="white" opacity="0.3"/><path d="M278,202.21272h14v1h-14Z" fill="white" opacity="0.3"/><path d="M308,196.0998h14v1h-14Z" fill="white" opacity="0.3"/><path d="M338,188.9288h14v1h-14Z" fill="white" opacity="0.3"/><path d="M368,170.49676000000002h14v1h-14Z" fill="white" opacity="0.3"/><path d="M398,171.30872h14v1h-14Z" fill="white" opacity="0.3"/><path d="M428,165.22668h14v1h-14Z" fill="white" opacity="0.3"/><path d="M458,93.68571999999999h14v1h-14Z" fill="white" opacity="0.3"/><path d="M488,142.94648h14v1h-14Z" fill="white" opacity="0.3"/><path d="M518,142.22952h14v1h-14Z" fill="white" opacity="0.3"/><path d="M548,122.29868h14v1h-14Z" fill="white" opacity="0.3"/><path d="M578,92.69271999999997h14v1h-14Z" fill="white" opacity="0.3"/></g><g class="mark-group role-legend" role="graphics-symbol" aria-roledescription="legend" aria-label="Symbol legend titled 'blas' for fill color with 3 values: m1-neoverse, m1-thunder, vortex"><g transform="translate(618,0)"><path class="background" aria-hidden="true" d="M0,0h75v53h-75Z" pointer-events="none"/><g><g class="mark-group role-legend-entry"><g transform="translate(0,16)"><path class="background" aria-hidden="true" d="M0,0h0v0h0Z" pointer-events="none"/><g><g class="mark-group role-scope" role="graphics-object" aria-roledescription="group mark container"><g transform="translate(0,0)"><path class="background" aria-hidden="true" d="M0,0h74.359375v11h-74.359375Z" pointer-events="none" opacity="1"/><g><g class="mark-symbol role-legend-symbol" pointer-events="none"><path transform="translate(6,6)" d="M-5,-5h10v10h-10Z" fill="#4c78a8" stroke-width="1.5" opacity="1"/></g><g class="mark-text role-legend-label" pointer-events="none"><text text-anchor="start" transform="translate(16,9)" font-family="sans-serif" font-size="10px" fill="#000" opacity="1">m1-neoverse</text></g></g><path class="foreground" aria-hidden="true" d="" pointer-events="none" display="none"/></g><g transform="translate(0,13)"><path class="background" aria-hidden="true" d="M0,0h74.359375v11h-74.359375Z" pointer-events="none" opacity="1"/><g><g class="mark-symbol role-legend-symbol" pointer-events="none"><path transform="translate(6,6)" d="M-5,-5h10v10h-10Z" fill="#f58518" stroke-width="1.5" opacity="1"/></g><g class="mark-text role-legend-label" pointer-events="none"><text text-anchor="start" transform="translate(16,9)" font-family="sans-serif" font-size="10px" fill="#000" opacity="1">m1-thunder</text></g></g><path class="foreground" aria-hidden="true" d="" pointer-events="none" display="none"/></g><g transform="translate(0,26)"><path class="background" aria-hidden="true" d="M0,0h74.359375v11h-74.359375Z" pointer-events="none" opacity="1"/><g><g class="mark-symbol role-legend-symbol" pointer-events="none"><path transform="translate(6,6)" d="M-5,-5h10v10h-10Z" fill="#e45756" stroke-width="1.5" opacity="1"/></g><g class="mark-text role-legend-label" pointer-events="none"><text text-anchor="start" transform="translate(16,9)" font-family="sans-serif" font-size="10px" fill="#000" opacity="1">vortex</text></g></g><path class="foreground" aria-hidden="true" d="" pointer-events="none" display="none"/></g></g></g><path class="foreground" aria-hidden="true" d="" pointer-events="none" display="none"/></g></g><g class="mark-text role-legend-title" pointer-events="none"><text text-anchor="start" transform="translate(0,9)" font-family="sans-serif" font-size="11px" font-weight="bold" fill="#000" opacity="1">blas</text></g></g><path class="foreground" aria-hidden="true" d="" pointer-events="none" display="none"/></g></g><g class="mark-group role-title"><g transform="translate(300,-22)"><path class="background" aria-hidden="true" d="M0,0h0v0h0Z" pointer-events="none"/><g><g class="mark-text role-title-text" role="graphics-symbol" aria-roledescription="title" aria-label="Title text 'dgemm'" pointer-events="none"><text text-anchor="middle" transform="translate(0,10)" font-family="sans-serif" font-size="13px" font-weight="bold" fill="#000" opacity="1">dgemm</text></g></g><path class="foreground" aria-hidden="true" d="" pointer-events="none" display="none"/></g></g></g><path class="foreground" aria-hidden="true" d="" display="none"/></g></g></g></svg>